<svg width="50" height="50" viewBox="0 0 50 50" fill="none" xmlns="http://www.w3.org/2000/svg">
<path d="M37.8113 6.65234C37.3986 6.65234 36.998 6.70352 36.6151 6.7999V5.41406C36.6151 2.7166 34.4206 0.52207 31.7231 0.52207C30.718 0.52207 29.7832 0.827051 29.005 1.34834C28.1268 0.512891 26.9404 0 25.6356 0C23.4052 0 21.5188 1.50049 20.9325 3.54512C20.4181 3.36084 19.8646 3.26074 19.2876 3.26074C16.5901 3.26074 14.3956 5.45527 14.3956 8.15273V16.2566C13.8101 16.0289 13.1741 15.9035 12.5091 15.9035C9.63506 15.9035 7.29688 18.241 7.29688 21.115V30.8509C7.29688 37.0324 11.0591 48.9803 25.2964 49.9572C25.7138 49.9855 26.1349 50 26.5477 50C35.4557 50 42.7034 42.9318 42.7034 34.2432V11.5443C42.7033 8.84688 40.5089 6.65234 37.8113 6.65234ZM26.5476 47.2604C26.1975 47.2604 25.8436 47.2481 25.4835 47.2237C12.3332 46.3217 10.0363 34.8538 10.0363 30.8508V21.1149C10.0363 19.7498 11.1438 18.643 12.509 18.643C13.8742 18.643 14.9817 19.7498 14.9817 21.1149V28.6342H17.1351V8.15283C17.1351 6.96416 18.0989 6.00029 19.2875 6.00029C20.4762 6.00029 21.44 6.96416 21.44 8.15283V23.0902H23.4832V4.89199C23.4832 3.70332 24.4471 2.73955 25.6356 2.73955C26.8243 2.73955 27.7882 3.70342 27.7882 4.89199V23.0902H29.5707V5.41406C29.5707 4.22539 30.5346 3.26162 31.7232 3.26162C32.9118 3.26162 33.8757 4.22549 33.8757 5.41406V23.0902H35.659V11.5443C35.659 10.3557 36.6229 9.3918 37.8114 9.3918C39.0001 9.3918 39.964 10.3557 39.964 11.5443V34.2432C39.9639 40.991 34.5162 47.2604 26.5476 47.2604Z" fill="black"/>
</svg>
