<svg width="300" height="520" viewBox="0 0 300 520" fill="none" xmlns="http://www.w3.org/2000/svg">
<g clip-path="url(#clip0_19_104)">
<rect width="300" height="520" fill="#EAEAEA"/>
<g clip-path="url(#clip1_19_104)">
<g clip-path="url(#clip2_19_104)">
<path d="M83.0501 45L78.8881 30.4545H82.2475L84.6552 40.5611H84.7759L87.4322 30.4545H90.3086L92.9577 40.5824H93.0856L95.4933 30.4545H98.8526L94.6907 45H91.6935L88.9237 35.4901H88.81L86.0472 45H83.0501ZM104.241 45.2131C103.119 45.2131 102.153 44.9858 101.344 44.5312C100.539 44.072 99.9186 43.4233 99.483 42.5852C99.0473 41.7424 98.8295 40.7457 98.8295 39.5952C98.8295 38.473 99.0473 37.4882 99.483 36.6406C99.9186 35.7931 100.532 35.1326 101.322 34.6591C102.118 34.1856 103.051 33.9489 104.121 33.9489C104.84 33.9489 105.51 34.0649 106.131 34.2969C106.756 34.5241 107.3 34.8674 107.764 35.3267C108.233 35.786 108.598 36.3636 108.858 37.0597C109.118 37.7509 109.249 38.5606 109.249 39.4886V40.3196H100.037V38.4446H106.401C106.401 38.009 106.306 37.6231 106.116 37.2869C105.927 36.9508 105.664 36.688 105.328 36.4986C104.997 36.3045 104.611 36.2074 104.17 36.2074C103.711 36.2074 103.304 36.3139 102.949 36.527C102.598 36.7353 102.324 37.017 102.125 37.3722C101.926 37.7225 101.824 38.1132 101.82 38.544V40.3267C101.82 40.8665 101.919 41.3329 102.118 41.7259C102.321 42.1188 102.608 42.4219 102.977 42.6349C103.347 42.848 103.785 42.9545 104.291 42.9545C104.627 42.9545 104.935 42.9072 105.214 42.8125C105.494 42.7178 105.733 42.5758 105.932 42.3864C106.131 42.197 106.282 41.965 106.386 41.6903L109.185 41.875C109.043 42.5473 108.751 43.1345 108.311 43.6364C107.875 44.1335 107.312 44.5218 106.621 44.8011C105.934 45.0758 105.141 45.2131 104.241 45.2131ZM111.28 45V30.4545H114.305V35.9233H114.398C114.53 35.6297 114.722 35.3314 114.973 35.0284C115.229 34.7206 115.56 34.465 115.967 34.2614C116.379 34.053 116.891 33.9489 117.501 33.9489C118.297 33.9489 119.031 34.1572 119.703 34.5739C120.375 34.9858 120.913 35.6084 121.315 36.4418C121.718 37.2704 121.919 38.3097 121.919 39.5597C121.919 40.7765 121.723 41.804 121.33 42.642C120.941 43.4754 120.411 44.1075 119.739 44.5384C119.071 44.9645 118.323 45.1776 117.494 45.1776C116.907 45.1776 116.408 45.0805 115.996 44.8864C115.589 44.6922 115.255 44.4484 114.994 44.1548C114.734 43.8565 114.535 43.5559 114.398 43.2528H114.263V45H111.28ZM114.241 39.5455C114.241 40.1941 114.331 40.7599 114.511 41.2429C114.691 41.7259 114.952 42.1023 115.293 42.3722C115.634 42.6373 116.048 42.7699 116.536 42.7699C117.028 42.7699 117.445 42.6349 117.786 42.3651C118.126 42.0904 118.384 41.7116 118.56 41.2287C118.74 40.741 118.83 40.1799 118.83 39.5455C118.83 38.9157 118.742 38.3617 118.567 37.8835C118.392 37.4053 118.134 37.0312 117.793 36.7614C117.452 36.4915 117.033 36.3565 116.536 36.3565C116.043 36.3565 115.626 36.4867 115.286 36.7472C114.949 37.0076 114.691 37.3769 114.511 37.8551C114.331 38.3333 114.241 38.8968 114.241 39.5455ZM140.79 30.4545V45H138.134L131.805 35.8452H131.699V45H128.624V30.4545H131.322L137.601 39.6023H137.729V30.4545H140.79ZM148.203 45.2131C147.1 45.2131 146.145 44.9787 145.341 44.5099C144.54 44.0365 143.922 43.3783 143.487 42.5355C143.051 41.688 142.833 40.7055 142.833 39.5881C142.833 38.4612 143.051 37.4763 143.487 36.6335C143.922 35.786 144.54 35.1278 145.341 34.6591C146.145 34.1856 147.1 33.9489 148.203 33.9489C149.306 33.9489 150.258 34.1856 151.058 34.6591C151.863 35.1278 152.483 35.786 152.919 36.6335C153.354 37.4763 153.572 38.4612 153.572 39.5881C153.572 40.7055 153.354 41.688 152.919 42.5355C152.483 43.3783 151.863 44.0365 151.058 44.5099C150.258 44.9787 149.306 45.2131 148.203 45.2131ZM148.217 42.8693C148.719 42.8693 149.138 42.7273 149.474 42.4432C149.81 42.1544 150.064 41.7614 150.234 41.2642C150.409 40.767 150.497 40.2012 150.497 39.5668C150.497 38.9323 150.409 38.3665 150.234 37.8693C150.064 37.3722 149.81 36.9792 149.474 36.6903C149.138 36.4015 148.719 36.2571 148.217 36.2571C147.71 36.2571 147.284 36.4015 146.939 36.6903C146.598 36.9792 146.34 37.3722 146.164 37.8693C145.994 38.3665 145.909 38.9323 145.909 39.5668C145.909 40.2012 145.994 40.767 146.164 41.2642C146.34 41.7614 146.598 42.1544 146.939 42.4432C147.284 42.7273 147.71 42.8693 148.217 42.8693ZM165.358 34.0909L161.544 45H158.135L154.321 34.0909H157.517L159.783 41.8963H159.897L162.155 34.0909H165.358ZM171.527 45.2131C170.404 45.2131 169.439 44.9858 168.629 44.5312C167.824 44.072 167.204 43.4233 166.768 42.5852C166.333 41.7424 166.115 40.7457 166.115 39.5952C166.115 38.473 166.333 37.4882 166.768 36.6406C167.204 35.7931 167.817 35.1326 168.608 34.6591C169.403 34.1856 170.336 33.9489 171.406 33.9489C172.126 33.9489 172.796 34.0649 173.416 34.2969C174.041 34.5241 174.585 34.8674 175.049 35.3267C175.518 35.786 175.883 36.3636 176.143 37.0597C176.404 37.7509 176.534 38.5606 176.534 39.4886V40.3196H167.322V38.4446H173.686C173.686 38.009 173.591 37.6231 173.402 37.2869C173.212 36.9508 172.949 36.688 172.613 36.4986C172.282 36.3045 171.896 36.2074 171.456 36.2074C170.996 36.2074 170.589 36.3139 170.234 36.527C169.884 36.7353 169.609 37.017 169.41 37.3722C169.211 37.7225 169.109 38.1132 169.105 38.544V40.3267C169.105 40.8665 169.204 41.3329 169.403 41.7259C169.607 42.1188 169.893 42.4219 170.262 42.6349C170.632 42.848 171.07 42.9545 171.576 42.9545C171.913 42.9545 172.22 42.9072 172.5 42.8125C172.779 42.7178 173.018 42.5758 173.217 42.3864C173.416 42.197 173.567 41.965 173.672 41.6903L176.47 41.875C176.328 42.5473 176.037 43.1345 175.596 43.6364C175.161 44.1335 174.597 44.5218 173.906 44.8011C173.219 45.0758 172.426 45.2131 171.527 45.2131ZM181.534 30.4545V45H178.508V30.4545H181.534ZM201.477 35.5469H198.366C198.309 35.1444 198.193 34.7869 198.018 34.4744C197.843 34.1572 197.618 33.8873 197.343 33.6648C197.069 33.4422 196.752 33.2718 196.392 33.1534C196.037 33.035 195.651 32.9759 195.234 32.9759C194.481 32.9759 193.825 33.1629 193.267 33.5369C192.708 33.9062 192.275 34.446 191.967 35.1562C191.659 35.8617 191.505 36.7187 191.505 37.7273C191.505 38.7642 191.659 39.6354 191.967 40.3409C192.279 41.0464 192.715 41.5791 193.274 41.9389C193.833 42.2988 194.479 42.4787 195.213 42.4787C195.625 42.4787 196.006 42.4242 196.356 42.3153C196.711 42.2064 197.026 42.0478 197.301 41.8395C197.575 41.6264 197.803 41.3684 197.983 41.0653C198.167 40.7623 198.295 40.4167 198.366 40.0284L201.477 40.0426C201.396 40.7102 201.195 41.3542 200.873 41.9744C200.556 42.59 200.127 43.1416 199.588 43.6293C199.053 44.1122 198.413 44.4957 197.67 44.7798C196.931 45.0592 196.096 45.1989 195.163 45.1989C193.866 45.1989 192.706 44.9053 191.683 44.3182C190.665 43.7311 189.86 42.8812 189.268 41.7685C188.681 40.6558 188.387 39.3087 188.387 37.7273C188.387 36.1411 188.686 34.7917 189.282 33.679C189.879 32.5663 190.689 31.7187 191.711 31.1364C192.734 30.5492 193.885 30.2557 195.163 30.2557C196.006 30.2557 196.787 30.3741 197.507 30.6108C198.231 30.8475 198.873 31.1932 199.431 31.6477C199.99 32.0975 200.445 32.6491 200.795 33.3026C201.15 33.956 201.377 34.7041 201.477 35.5469ZM203.625 45V34.0909H206.559V35.9943H206.672C206.871 35.3172 207.205 34.8059 207.674 34.4602C208.142 34.1098 208.682 33.9347 209.293 33.9347C209.444 33.9347 209.608 33.9441 209.783 33.9631C209.958 33.982 210.112 34.008 210.245 34.0412V36.7259C210.103 36.6832 209.906 36.6454 209.655 36.6122C209.404 36.5791 209.175 36.5625 208.966 36.5625C208.521 36.5625 208.123 36.6596 207.773 36.8537C207.427 37.0431 207.153 37.3082 206.949 37.6491C206.75 37.9901 206.651 38.383 206.651 38.8281V45H203.625ZM214.607 45.206C213.911 45.206 213.291 45.0852 212.746 44.8438C212.202 44.5975 211.771 44.2353 211.454 43.7571C211.141 43.2741 210.985 42.6728 210.985 41.9531C210.985 41.3471 211.096 40.8381 211.319 40.4261C211.541 40.0142 211.844 39.6828 212.228 39.4318C212.612 39.1809 213.047 38.9915 213.535 38.8636C214.027 38.7358 214.543 38.6458 215.083 38.5938C215.718 38.5275 216.229 38.4659 216.617 38.4091C217.005 38.3475 217.287 38.2576 217.462 38.1392C217.638 38.0208 217.725 37.8456 217.725 37.6136V37.571C217.725 37.1212 217.583 36.7732 217.299 36.527C217.02 36.2808 216.622 36.1577 216.106 36.1577C215.561 36.1577 215.128 36.2784 214.806 36.5199C214.484 36.7566 214.271 37.0549 214.167 37.4148L211.369 37.1875C211.511 36.5246 211.79 35.9517 212.207 35.4688C212.623 34.9811 213.161 34.607 213.819 34.3466C214.482 34.0814 215.249 33.9489 216.12 33.9489C216.726 33.9489 217.306 34.0199 217.86 34.1619C218.419 34.304 218.914 34.5241 219.344 34.8224C219.78 35.1207 220.123 35.5043 220.374 35.973C220.625 36.437 220.751 36.9934 220.751 37.642V45H217.881V43.4872H217.796C217.621 43.8281 217.387 44.1288 217.093 44.3892C216.799 44.6449 216.447 44.8461 216.035 44.9929C215.623 45.1349 215.147 45.206 214.607 45.206ZM215.474 43.1179C215.919 43.1179 216.312 43.0303 216.653 42.8551C216.994 42.6752 217.261 42.4337 217.455 42.1307C217.649 41.8277 217.746 41.4844 217.746 41.1009V39.9432C217.652 40.0047 217.522 40.0616 217.356 40.1136C217.195 40.161 217.013 40.206 216.809 40.2486C216.605 40.2865 216.402 40.322 216.198 40.3551C215.995 40.3835 215.81 40.4096 215.644 40.4332C215.289 40.4853 214.979 40.5682 214.714 40.6818C214.449 40.7955 214.243 40.9493 214.096 41.1435C213.949 41.3329 213.876 41.5696 213.876 41.8537C213.876 42.2656 214.025 42.5805 214.323 42.7983C214.626 43.0114 215.01 43.1179 215.474 43.1179ZM225.25 45L222.281 34.0909H225.342L227.033 41.4205H227.132L228.893 34.0909H231.898L233.688 41.3778H233.78L235.442 34.0909H238.496L235.534 45H232.331L230.456 38.1392H230.321L228.446 45H225.25ZM243.135 30.4545V45H240.11V30.4545H243.135ZM250.531 45.2131C249.408 45.2131 248.442 44.9858 247.633 44.5312C246.828 44.072 246.208 43.4233 245.772 42.5852C245.336 41.7424 245.119 40.7457 245.119 39.5952C245.119 38.473 245.336 37.4882 245.772 36.6406C246.208 35.7931 246.821 35.1326 247.612 34.6591C248.407 34.1856 249.34 33.9489 250.41 33.9489C251.129 33.9489 251.799 34.0649 252.42 34.2969C253.045 34.5241 253.589 34.8674 254.053 35.3267C254.522 35.786 254.887 36.3636 255.147 37.0597C255.407 37.7509 255.538 38.5606 255.538 39.4886V40.3196H246.326V38.4446H252.69C252.69 38.009 252.595 37.6231 252.406 37.2869C252.216 36.9508 251.953 36.688 251.617 36.4986C251.286 36.3045 250.9 36.2074 250.46 36.2074C250 36.2074 249.593 36.3139 249.238 36.527C248.888 36.7353 248.613 37.017 248.414 37.3722C248.215 37.7225 248.113 38.1132 248.109 38.544V40.3267C248.109 40.8665 248.208 41.3329 248.407 41.7259C248.611 42.1188 248.897 42.4219 249.266 42.6349C249.636 42.848 250.074 42.9545 250.58 42.9545C250.916 42.9545 251.224 42.9072 251.504 42.8125C251.783 42.7178 252.022 42.5758 252.221 42.3864C252.42 42.197 252.571 41.965 252.675 41.6903L255.474 41.875C255.332 42.5473 255.04 43.1345 254.6 43.6364C254.165 44.1335 253.601 44.5218 252.91 44.8011C252.223 45.0758 251.43 45.2131 250.531 45.2131ZM257.512 45V34.0909H260.445V35.9943H260.559C260.758 35.3172 261.092 34.8059 261.56 34.4602C262.029 34.1098 262.569 33.9347 263.18 33.9347C263.331 33.9347 263.495 33.9441 263.67 33.9631C263.845 33.982 263.999 34.008 264.131 34.0412V36.7259C263.989 36.6832 263.793 36.6454 263.542 36.6122C263.291 36.5791 263.061 36.5625 262.853 36.5625C262.408 36.5625 262.01 36.6596 261.66 36.8537C261.314 37.0431 261.04 37.3082 260.836 37.6491C260.637 37.9901 260.538 38.383 260.538 38.8281V45H257.512Z" fill="#464646"/>
</g>
<g clip-path="url(#clip3_19_104)">
<g clip-path="url(#clip4_19_104)">
<path d="M32.8825 44.75L30.3425 16H15V42.25L32.8825 44.75Z" fill="white"/>
<path d="M45.6702 42.2598V24.7598L39.4202 22.2597L36.9202 16.0098H30.2627L30.3027 44.7598L45.6702 42.2598Z" fill="white"/>
<path d="M37 24.75V16L45.75 24.75H37Z" fill="white"/>
<path d="M45.75 42.25H15V56H45.75V42.25Z" fill="#1E1E1E"/>
<path d="M22.6017 47.9349H21.6063C21.5881 47.8061 21.551 47.6917 21.4949 47.5917C21.4388 47.4902 21.3669 47.4038 21.279 47.3326C21.1911 47.2614 21.0896 47.2068 20.9745 47.169C20.8608 47.1311 20.7373 47.1121 20.604 47.1121C20.3631 47.1121 20.1532 47.172 19.9745 47.2917C19.7957 47.4099 19.657 47.5826 19.5585 47.8099C19.4601 48.0356 19.4108 48.3099 19.4108 48.6326C19.4108 48.9644 19.4601 49.2432 19.5585 49.469C19.6585 49.6947 19.7979 49.8652 19.9767 49.9803C20.1555 50.0955 20.3623 50.153 20.5972 50.153C20.729 50.153 20.851 50.1356 20.9631 50.1008C21.0767 50.0659 21.1775 50.0152 21.2654 49.9485C21.3532 49.8803 21.426 49.7977 21.4835 49.7008C21.5426 49.6038 21.5835 49.4932 21.6063 49.369L22.6017 49.3735C22.576 49.5871 22.5116 49.7932 22.4085 49.9917C22.307 50.1887 22.1699 50.3652 21.9972 50.5212C21.826 50.6758 21.6214 50.7985 21.3835 50.8894C21.1472 50.9788 20.8798 51.0235 20.5813 51.0235C20.1661 51.0235 19.7949 50.9296 19.4676 50.7417C19.1419 50.5538 18.8843 50.2818 18.6949 49.9258C18.507 49.5697 18.4131 49.1387 18.4131 48.6326C18.4131 48.125 18.5085 47.6932 18.6995 47.3371C18.8904 46.9811 19.1495 46.7099 19.4767 46.5235C19.804 46.3356 20.1722 46.2417 20.5813 46.2417C20.851 46.2417 21.101 46.2796 21.3313 46.3553C21.5631 46.4311 21.7684 46.5417 21.9472 46.6871C22.126 46.8311 22.2714 47.0076 22.3835 47.2167C22.4972 47.4258 22.5699 47.6652 22.6017 47.9349ZM23.2892 50.9599V47.469H24.2279V48.078H24.2642C24.3279 47.8614 24.4347 47.6977 24.5847 47.5871C24.7347 47.475 24.9074 47.419 25.1029 47.419C25.1514 47.419 25.2037 47.422 25.2597 47.428C25.3158 47.4341 25.365 47.4424 25.4075 47.453V48.3121C25.362 48.2985 25.2991 48.2864 25.2188 48.2758C25.1385 48.2652 25.065 48.2599 24.9983 48.2599C24.8559 48.2599 24.7286 48.2909 24.6165 48.353C24.5059 48.4137 24.418 48.4985 24.3529 48.6076C24.2892 48.7167 24.2574 48.8424 24.2574 48.9849V50.9599H23.2892ZM26.8035 51.0258C26.5807 51.0258 26.3823 50.9871 26.208 50.9099C26.0338 50.8311 25.8959 50.7152 25.7944 50.5621C25.6944 50.4076 25.6444 50.2152 25.6444 49.9849C25.6444 49.7909 25.68 49.628 25.7512 49.4962C25.8224 49.3644 25.9194 49.2584 26.0421 49.178C26.1648 49.0977 26.3042 49.0371 26.4603 48.9962C26.6179 48.9553 26.783 48.9265 26.9557 48.9099C27.1588 48.8887 27.3224 48.869 27.4467 48.8508C27.5709 48.8311 27.661 48.8023 27.7171 48.7644C27.7732 48.7265 27.8012 48.6705 27.8012 48.5962V48.5826C27.8012 48.4387 27.7557 48.3273 27.6648 48.2485C27.5754 48.1697 27.4482 48.1303 27.283 48.1303C27.1088 48.1303 26.9701 48.169 26.8671 48.2462C26.7641 48.322 26.6959 48.4174 26.6626 48.5326L25.7671 48.4599C25.8126 48.2477 25.902 48.0644 26.0353 47.9099C26.1686 47.7538 26.3406 47.6341 26.5512 47.5508C26.7633 47.4659 27.0088 47.4235 27.2876 47.4235C27.4815 47.4235 27.6671 47.4462 27.8444 47.4917C28.0232 47.5371 28.1815 47.6076 28.3194 47.703C28.4588 47.7985 28.5686 47.9212 28.6489 48.0712C28.7292 48.2197 28.7694 48.3977 28.7694 48.6053V50.9599H27.8512V50.4758H27.8239C27.7679 50.5849 27.6929 50.6811 27.5989 50.7644C27.505 50.8462 27.3921 50.9106 27.2603 50.9576C27.1285 51.003 26.9762 51.0258 26.8035 51.0258ZM27.0807 50.3576C27.2232 50.3576 27.3489 50.3296 27.458 50.2735C27.5671 50.2159 27.6527 50.1387 27.7148 50.0417C27.777 49.9447 27.808 49.8349 27.808 49.7121V49.3417C27.7777 49.3614 27.736 49.3796 27.683 49.3962C27.6315 49.4114 27.5732 49.4258 27.508 49.4394C27.4429 49.4515 27.3777 49.4629 27.3126 49.4735C27.2474 49.4826 27.1883 49.4909 27.1353 49.4985C27.0217 49.5152 26.9224 49.5417 26.8376 49.578C26.7527 49.6144 26.6868 49.6637 26.6398 49.7258C26.5929 49.7864 26.5694 49.8621 26.5694 49.953C26.5694 50.0849 26.6171 50.1856 26.7126 50.2553C26.8095 50.3235 26.9323 50.3576 27.0807 50.3576ZM30.2092 50.9599L29.2592 47.469H30.2387L30.7796 49.8144H30.8114L31.3751 47.469H32.3364L32.9092 49.8008H32.9387L33.4705 47.469H34.4478L33.5001 50.9599H32.4751L31.8751 48.7644H31.8319L31.2319 50.9599H30.2092ZM35.9325 46.3053V50.9599H34.9643V46.3053H35.9325ZM38.2989 51.028C37.9398 51.028 37.6307 50.9553 37.3717 50.8099C37.1141 50.6629 36.9156 50.4553 36.7762 50.1871C36.6368 49.9174 36.5671 49.5985 36.5671 49.2303C36.5671 48.8712 36.6368 48.5561 36.7762 48.2849C36.9156 48.0137 37.1118 47.8023 37.3648 47.6508C37.6194 47.4993 37.9179 47.4235 38.2603 47.4235C38.4906 47.4235 38.705 47.4606 38.9035 47.5349C39.1035 47.6076 39.2777 47.7174 39.4262 47.8644C39.5762 48.0114 39.6929 48.1962 39.7762 48.419C39.8595 48.6402 39.9012 48.8993 39.9012 49.1962V49.4621H36.9535V48.8621H38.9898C38.9898 48.7227 38.9595 48.5993 38.8989 48.4917C38.8383 48.3841 38.7542 48.3 38.6467 48.2394C38.5406 48.1773 38.4171 48.1462 38.2762 48.1462C38.1292 48.1462 37.9989 48.1803 37.8853 48.2485C37.7732 48.3152 37.6853 48.4053 37.6217 48.519C37.558 48.6311 37.5254 48.7561 37.5239 48.894V49.4644C37.5239 49.6371 37.5557 49.7864 37.6194 49.9121C37.6845 50.0379 37.7762 50.1349 37.8944 50.203C38.0126 50.2712 38.1527 50.3053 38.3148 50.3053C38.4224 50.3053 38.5209 50.2902 38.6103 50.2599C38.6997 50.2296 38.7762 50.1841 38.8398 50.1235C38.9035 50.0629 38.952 49.9887 38.9853 49.9008L39.8807 49.9599C39.8353 50.175 39.7421 50.3629 39.6012 50.5235C39.4618 50.6826 39.2815 50.8068 39.0603 50.8962C38.8406 50.9841 38.5868 51.028 38.2989 51.028ZM40.533 50.9599V47.469H41.4717V48.078H41.508C41.5717 47.8614 41.6785 47.6977 41.8285 47.5871C41.9785 47.475 42.1512 47.419 42.3467 47.419C42.3951 47.419 42.4474 47.422 42.5035 47.428C42.5595 47.4341 42.6088 47.4424 42.6512 47.453V48.3121C42.6057 48.2985 42.5429 48.2864 42.4626 48.2758C42.3823 48.2652 42.3088 48.2599 42.2421 48.2599C42.0997 48.2599 41.9724 48.2909 41.8603 48.353C41.7497 48.4137 41.6618 48.4985 41.5967 48.6076C41.533 48.7167 41.5012 48.8424 41.5012 48.9849V50.9599H40.533Z" fill="white"/>
<path d="M20.442 27.005L18.6523 20.7505H20.0969L21.1322 25.0963H21.1841L22.3263 20.7505H23.5631L24.7023 25.1055H24.7572L25.7926 20.7505H27.2371L25.4475 27.005H24.1587L22.9676 22.9158H22.9187L21.7308 27.005H20.442ZM29.5543 27.0966C29.0718 27.0966 28.6564 26.9989 28.3083 26.8034C27.9622 26.6059 27.6954 26.327 27.5081 25.9667C27.3208 25.6043 27.2272 25.1757 27.2272 24.681C27.2272 24.1984 27.3208 23.7749 27.5081 23.4105C27.6954 23.0461 27.9591 22.762 28.2991 22.5584C28.6412 22.3548 29.0423 22.253 29.5024 22.253C29.8119 22.253 30.0999 22.3029 30.3667 22.4027C30.6354 22.5004 30.8695 22.648 31.0691 22.8455C31.2706 23.043 31.4274 23.2914 31.5394 23.5907C31.6514 23.8879 31.7074 24.2361 31.7074 24.6351V24.9925H27.7463V24.1862H30.4827C30.4827 23.9989 30.442 23.833 30.3606 23.6884C30.2791 23.5439 30.1661 23.4309 30.0216 23.3494C29.879 23.2659 29.7131 23.2242 29.5238 23.2242C29.3263 23.2242 29.1512 23.27 28.9985 23.3616C28.8478 23.4512 28.7297 23.5724 28.6442 23.7251C28.5587 23.8757 28.5149 24.0437 28.5129 24.229V24.9955C28.5129 25.2276 28.5557 25.4282 28.6412 25.5971C28.7287 25.7661 28.8519 25.8964 29.0107 25.9881C29.1695 26.0796 29.3578 26.1254 29.5757 26.1254C29.7202 26.1254 29.8526 26.1051 29.9727 26.0644C30.0928 26.0236 30.1956 25.9626 30.2811 25.8812C30.3667 25.7997 30.4318 25.7 30.4766 25.5819L31.6799 25.6613C31.6188 25.9504 31.4936 26.2028 31.3042 26.4186C31.1169 26.6324 30.8746 26.7993 30.5774 26.9195C30.2822 27.0376 29.9411 27.0966 29.5543 27.0966ZM32.5808 27.005V20.7505H33.8818V23.102H33.9215C33.9785 22.9758 34.061 22.8475 34.1689 22.7172C34.2788 22.5849 34.4213 22.475 34.5964 22.3874C34.7735 22.2978 34.9934 22.253 35.2561 22.253C35.5981 22.253 35.9137 22.3426 36.2028 22.5218C36.4919 22.6989 36.723 22.9667 36.8961 23.325C37.0691 23.6813 37.1557 24.1282 37.1557 24.6657C37.1557 25.1889 37.0712 25.6307 36.9022 25.9911C36.7352 26.3494 36.5072 26.6212 36.2181 26.8065C35.931 26.9897 35.6093 27.0813 35.253 27.0813C35.0006 27.0813 34.7858 27.0396 34.6086 26.9561C34.4335 26.8726 34.29 26.7678 34.178 26.6416C34.066 26.5133 33.9805 26.384 33.9215 26.2537H33.8635V27.005H32.5808ZM33.8543 24.6596C33.8543 24.9385 33.893 25.1818 33.9704 25.3895C34.0477 25.5971 34.1597 25.759 34.3063 25.8751C34.4529 25.9891 34.631 26.046 34.8407 26.046C35.0525 26.046 35.2316 25.9881 35.3782 25.872C35.5248 25.7539 35.6358 25.591 35.7111 25.3834C35.7885 25.1737 35.8272 24.9324 35.8272 24.6596C35.8272 24.3888 35.7895 24.1506 35.7142 23.9449C35.6388 23.7393 35.5279 23.5785 35.3813 23.4624C35.2347 23.3464 35.0545 23.2883 34.8407 23.2883C34.629 23.2883 34.4498 23.3443 34.3032 23.4563C34.1587 23.5683 34.0477 23.7271 33.9704 23.9327C33.893 24.1384 33.8543 24.3806 33.8543 24.6596ZM24.2656 31.1504V37.405H23.1234L20.4023 33.4684H20.3565V37.405H19.0341V31.1504H20.1946L22.8943 35.084H22.9493V31.1504H24.2656ZM27.4532 37.4966C26.9788 37.4966 26.5685 37.3958 26.2224 37.1943C25.8783 36.9907 25.6126 36.7077 25.4253 36.3453C25.238 35.9808 25.1444 35.5583 25.1444 35.0779C25.1444 34.5933 25.238 34.1698 25.4253 33.8074C25.6126 33.443 25.8783 33.16 26.2224 32.9584C26.5685 32.7548 26.9788 32.653 27.4532 32.653C27.9275 32.653 28.3368 32.7548 28.6809 32.9584C29.027 33.16 29.2937 33.443 29.481 33.8074C29.6683 34.1698 29.762 34.5933 29.762 35.0779C29.762 35.5583 29.6683 35.9808 29.481 36.3453C29.2937 36.7077 29.027 36.9907 28.6809 37.1943C28.3368 37.3958 27.9275 37.4966 27.4532 37.4966ZM27.4593 36.4889C27.6751 36.4889 27.8553 36.4278 27.9998 36.3057C28.1444 36.1815 28.2533 36.0124 28.3266 35.7986C28.4019 35.5848 28.4396 35.3415 28.4396 35.0687C28.4396 34.7959 28.4019 34.5527 28.3266 34.3389C28.2533 34.1251 28.1444 33.956 27.9998 33.8318C27.8553 33.7076 27.6751 33.6455 27.4593 33.6455C27.2414 33.6455 27.0582 33.7076 26.9096 33.8318C26.763 33.956 26.652 34.1251 26.5767 34.3389C26.5034 34.5527 26.4667 34.7959 26.4667 35.0687C26.4667 35.3415 26.5034 35.5848 26.5767 35.7986C26.652 36.0124 26.763 36.1815 26.9096 36.3057C27.0582 36.4278 27.2414 36.4889 27.4593 36.4889ZM34.83 32.7141L33.1901 37.405H31.7242L30.0842 32.7141H31.4585L32.4327 36.0704H32.4815L33.4527 32.7141H34.83ZM37.4824 37.4966C36.9999 37.4966 36.5846 37.3989 36.2364 37.2034C35.8903 37.0059 35.6236 36.7271 35.4363 36.3667C35.249 36.0043 35.1553 35.5757 35.1553 35.0809C35.1553 34.5984 35.249 34.1749 35.4363 33.8105C35.6236 33.446 35.8872 33.162 36.2272 32.9584C36.5693 32.7548 36.9704 32.653 37.4305 32.653C37.74 32.653 38.0281 32.7029 38.2948 32.8026C38.5635 32.9004 38.7977 33.048 38.9972 33.2455C39.1988 33.443 39.3555 33.6913 39.4675 33.9906C39.5795 34.2879 39.6355 34.636 39.6355 35.0351V35.3924H35.6745V34.5863H38.4108C38.4108 34.3989 38.3701 34.2329 38.2887 34.0884C38.2072 33.9438 38.0942 33.8308 37.9497 33.7494C37.8072 33.6659 37.6412 33.6242 37.4519 33.6242C37.2544 33.6242 37.0793 33.67 36.9266 33.7616C36.7759 33.8512 36.6579 33.9724 36.5723 34.1251C36.4868 34.2758 36.4431 34.4436 36.441 34.6289V35.3955C36.441 35.6276 36.4838 35.8281 36.5693 35.9971C36.6568 36.1661 36.78 36.2964 36.9388 36.388C37.0976 36.4796 37.286 36.5255 37.5038 36.5255C37.6484 36.5255 37.7807 36.5051 37.9008 36.4644C38.0209 36.4236 38.1238 36.3626 38.2093 36.2811C38.2948 36.1997 38.3599 36.0999 38.4047 35.9818L39.608 36.0613C39.5469 36.3504 39.4217 36.6028 39.2324 36.8186C39.045 37.0324 38.8028 37.1993 38.5055 37.3195C38.2103 37.4376 37.8693 37.4966 37.4824 37.4966ZM41.7855 31.1504V37.405H40.4845V31.1504H41.7855Z" fill="#1E1E1E"/>
</g>
</g>
</g>
<path d="M39.108 248.29H36.983C36.9223 247.941 36.8106 247.633 36.6477 247.364C36.4848 247.091 36.2822 246.86 36.0398 246.67C35.7973 246.481 35.5208 246.339 35.2102 246.244C34.9034 246.146 34.572 246.097 34.2159 246.097C33.5833 246.097 33.0227 246.256 32.5341 246.574C32.0455 246.888 31.6629 247.35 31.3864 247.96C31.1098 248.566 30.9716 249.307 30.9716 250.182C30.9716 251.072 31.1098 251.822 31.3864 252.432C31.6667 253.038 32.0492 253.496 32.5341 253.807C33.0227 254.114 33.5814 254.267 34.2102 254.267C34.5587 254.267 34.8845 254.222 35.1875 254.131C35.4943 254.036 35.7689 253.898 36.0114 253.716C36.2576 253.534 36.464 253.311 36.6307 253.045C36.8011 252.78 36.9186 252.477 36.983 252.136L39.108 252.148C39.0284 252.701 38.8561 253.22 38.5909 253.705C38.3295 254.189 37.9867 254.617 37.5625 254.989C37.1383 255.356 36.642 255.644 36.0739 255.852C35.5057 256.057 34.875 256.159 34.1818 256.159C33.1591 256.159 32.2462 255.922 31.4432 255.449C30.6402 254.975 30.0076 254.292 29.5455 253.398C29.0833 252.504 28.8523 251.432 28.8523 250.182C28.8523 248.928 29.0852 247.856 29.5511 246.966C30.017 246.072 30.6515 245.388 31.4545 244.915C32.2576 244.441 33.1667 244.205 34.1818 244.205C34.8295 244.205 35.4318 244.295 35.9886 244.477C36.5455 244.659 37.0417 244.926 37.4773 245.278C37.9129 245.627 38.2708 246.055 38.5511 246.562C38.8352 247.066 39.0208 247.642 39.108 248.29ZM43.0043 250.886V256H40.9474V244.364H42.9588V248.756H43.0611C43.2656 248.263 43.5819 247.875 44.0099 247.591C44.4418 247.303 44.991 247.159 45.6577 247.159C46.2637 247.159 46.7921 247.286 47.2429 247.54C47.6937 247.794 48.0421 248.165 48.2884 248.653C48.5384 249.142 48.6634 249.739 48.6634 250.443V256H46.6065V250.761C46.6065 250.174 46.455 249.718 46.152 249.392C45.8527 249.062 45.4323 248.898 44.8906 248.898C44.527 248.898 44.2012 248.977 43.9134 249.136C43.6293 249.292 43.4058 249.517 43.2429 249.812C43.0838 250.108 43.0043 250.466 43.0043 250.886ZM56.3224 252.33V247.273H58.3793V256H56.3849V254.449H56.294C56.0971 254.937 55.7732 255.337 55.3224 255.648C54.8755 255.958 54.3243 256.114 53.669 256.114C53.0971 256.114 52.5914 255.987 52.152 255.733C51.7164 255.475 51.3755 255.102 51.1293 254.614C50.883 254.121 50.7599 253.527 50.7599 252.83V247.273H52.8168V252.511C52.8168 253.064 52.9683 253.504 53.2713 253.83C53.5743 254.155 53.9721 254.318 54.4645 254.318C54.7675 254.318 55.0611 254.244 55.3452 254.097C55.6293 253.949 55.8622 253.729 56.044 253.438C56.2296 253.142 56.3224 252.773 56.3224 252.33ZM53.794 246.125L55.0668 243.528H57.0781L55.3338 246.125H53.794ZM62.5511 250.886V256H60.4943V247.273H62.4602V248.756H62.5625C62.7633 248.267 63.0833 247.879 63.5227 247.591C63.9659 247.303 64.5133 247.159 65.1648 247.159C65.767 247.159 66.2917 247.288 66.7386 247.545C67.1894 247.803 67.5379 248.176 67.7841 248.665C68.0341 249.153 68.1572 249.746 68.1534 250.443V256H66.0966V250.761C66.0966 250.178 65.9451 249.722 65.642 249.392C65.3428 249.062 64.928 248.898 64.3977 248.898C64.0379 248.898 63.7178 248.977 63.4375 249.136C63.161 249.292 62.9432 249.517 62.7841 249.812C62.6288 250.108 62.5511 250.466 62.5511 250.886ZM74.0398 259.455C73.3011 259.455 72.6667 259.354 72.1364 259.153C71.6061 258.956 71.1799 258.691 70.858 258.358C70.536 258.025 70.3125 257.655 70.1875 257.25L72.0398 256.801C72.1231 256.972 72.2443 257.14 72.4034 257.307C72.5625 257.477 72.7765 257.617 73.0455 257.727C73.3182 257.841 73.661 257.898 74.0739 257.898C74.6572 257.898 75.1402 257.756 75.5227 257.472C75.9053 257.191 76.0966 256.729 76.0966 256.085V254.432H75.9943C75.8883 254.644 75.733 254.862 75.5284 255.085C75.3277 255.309 75.0606 255.496 74.7273 255.648C74.3977 255.799 73.983 255.875 73.483 255.875C72.8125 255.875 72.2045 255.718 71.6591 255.403C71.1174 255.085 70.6856 254.612 70.3636 253.983C70.0455 253.35 69.8864 252.559 69.8864 251.608C69.8864 250.65 70.0455 249.841 70.3636 249.182C70.6856 248.519 71.1193 248.017 71.6648 247.676C72.2102 247.331 72.8182 247.159 73.4886 247.159C74 247.159 74.4205 247.246 74.75 247.42C75.0833 247.591 75.3485 247.797 75.5455 248.04C75.7424 248.278 75.892 248.504 75.9943 248.716H76.108V247.273H78.1364V256.142C78.1364 256.888 77.9583 257.506 77.6023 257.994C77.2462 258.483 76.7595 258.848 76.142 259.091C75.5246 259.333 74.8239 259.455 74.0398 259.455ZM74.0568 254.261C74.4924 254.261 74.8636 254.155 75.1705 253.943C75.4773 253.731 75.7102 253.426 75.8693 253.028C76.0284 252.631 76.108 252.153 76.108 251.597C76.108 251.047 76.0284 250.566 75.8693 250.153C75.714 249.741 75.483 249.42 75.1761 249.193C74.8731 248.962 74.5 248.847 74.0568 248.847C73.5985 248.847 73.2159 248.966 72.9091 249.205C72.6023 249.443 72.3712 249.771 72.2159 250.188C72.0606 250.6 71.983 251.07 71.983 251.597C71.983 252.131 72.0606 252.598 72.2159 253C72.375 253.398 72.608 253.708 72.9148 253.932C73.2254 254.152 73.6061 254.261 74.0568 254.261ZM88.571 247.273V248.864H83.554V247.273H88.571ZM84.7926 245.182H86.8494V253.375C86.8494 253.652 86.8911 253.864 86.9744 254.011C87.0616 254.155 87.1752 254.254 87.3153 254.307C87.4555 254.36 87.6108 254.386 87.7812 254.386C87.91 254.386 88.0275 254.377 88.1335 254.358C88.2434 254.339 88.3267 254.322 88.3835 254.307L88.7301 255.915C88.6203 255.953 88.4631 255.994 88.2585 256.04C88.0578 256.085 87.8116 256.112 87.5199 256.119C87.0047 256.134 86.5407 256.057 86.1278 255.886C85.715 255.712 85.3873 255.443 85.1449 255.08C84.9063 254.716 84.7888 254.261 84.7926 253.716V245.182ZM94.0043 256.17C93.152 256.17 92.4134 255.983 91.7884 255.608C91.1634 255.233 90.6785 254.708 90.3338 254.034C89.9929 253.36 89.8224 252.572 89.8224 251.67C89.8224 250.769 89.9929 249.979 90.3338 249.301C90.6785 248.623 91.1634 248.097 91.7884 247.722C92.4134 247.347 93.152 247.159 94.0043 247.159C94.8565 247.159 95.5952 247.347 96.2202 247.722C96.8452 248.097 97.3281 248.623 97.669 249.301C98.0137 249.979 98.1861 250.769 98.1861 251.67C98.1861 252.572 98.0137 253.36 97.669 254.034C97.3281 254.708 96.8452 255.233 96.2202 255.608C95.5952 255.983 94.8565 256.17 94.0043 256.17ZM94.0156 254.523C94.4777 254.523 94.8641 254.396 95.1747 254.142C95.4853 253.884 95.7164 253.54 95.8679 253.108C96.0232 252.676 96.1009 252.195 96.1009 251.665C96.1009 251.131 96.0232 250.648 95.8679 250.216C95.7164 249.78 95.4853 249.434 95.1747 249.176C94.8641 248.919 94.4777 248.79 94.0156 248.79C93.5421 248.79 93.1482 248.919 92.8338 249.176C92.5232 249.434 92.2902 249.78 92.1349 250.216C91.9834 250.648 91.9077 251.131 91.9077 251.665C91.9077 252.195 91.9834 252.676 92.1349 253.108C92.2902 253.54 92.5232 253.884 92.8338 254.142C93.1482 254.396 93.5421 254.523 94.0156 254.523ZM95.1577 246.227L94.0043 244.773L92.8509 246.227H91.0497V246.148L93.2031 243.693H94.8111L96.9588 246.148V246.227H95.1577ZM99.9318 256V247.273H101.989V256H99.9318ZM100.966 246.034C100.64 246.034 100.36 245.926 100.125 245.71C99.8902 245.491 99.7727 245.227 99.7727 244.92C99.7727 244.61 99.8902 244.347 100.125 244.131C100.36 243.911 100.64 243.801 100.966 243.801C101.295 243.801 101.576 243.911 101.807 244.131C102.042 244.347 102.159 244.61 102.159 244.92C102.159 245.227 102.042 245.491 101.807 245.71C101.576 245.926 101.295 246.034 100.966 246.034ZM110.129 250.886V256H108.072V244.364H110.084V248.756H110.186C110.391 248.263 110.707 247.875 111.135 247.591C111.567 247.303 112.116 247.159 112.783 247.159C113.389 247.159 113.917 247.286 114.368 247.54C114.819 247.794 115.167 248.165 115.413 248.653C115.663 249.142 115.788 249.739 115.788 250.443V256H113.732V250.761C113.732 250.174 113.58 249.718 113.277 249.392C112.978 249.062 112.557 248.898 112.016 248.898C111.652 248.898 111.326 248.977 111.038 249.136C110.754 249.292 110.531 249.517 110.368 249.812C110.209 250.108 110.129 250.466 110.129 250.886ZM117.885 256V247.273H119.942V256H117.885ZM118.919 246.034C118.593 246.034 118.313 245.926 118.078 245.71C117.843 245.491 117.726 245.227 117.726 244.92C117.726 244.61 117.843 244.347 118.078 244.131C118.313 243.911 118.593 243.801 118.919 243.801C119.249 243.801 119.529 243.911 119.76 244.131C119.995 244.347 120.112 244.61 120.112 244.92C120.112 245.227 119.995 245.491 119.76 245.71C119.529 245.926 119.249 246.034 118.919 246.034ZM125.92 256.17C125.045 256.17 124.29 255.989 123.653 255.625C123.021 255.258 122.534 254.739 122.193 254.068C121.852 253.394 121.682 252.6 121.682 251.688C121.682 250.79 121.852 250.002 122.193 249.324C122.538 248.642 123.019 248.112 123.636 247.733C124.254 247.35 124.979 247.159 125.812 247.159C126.35 247.159 126.858 247.246 127.335 247.42C127.816 247.591 128.241 247.856 128.608 248.216C128.979 248.576 129.271 249.034 129.483 249.591C129.695 250.144 129.801 250.803 129.801 251.568V252.199H122.648V250.812H127.83C127.826 250.419 127.741 250.068 127.574 249.761C127.407 249.451 127.174 249.206 126.875 249.028C126.58 248.85 126.235 248.761 125.841 248.761C125.42 248.761 125.051 248.864 124.733 249.068C124.415 249.269 124.167 249.534 123.989 249.864C123.814 250.189 123.725 250.547 123.722 250.938V252.148C123.722 252.655 123.814 253.091 124 253.455C124.186 253.814 124.445 254.091 124.778 254.284C125.112 254.473 125.502 254.568 125.949 254.568C126.248 254.568 126.519 254.527 126.761 254.443C127.004 254.356 127.214 254.229 127.392 254.062C127.57 253.896 127.705 253.689 127.795 253.443L129.716 253.659C129.595 254.167 129.364 254.61 129.023 254.989C128.686 255.364 128.254 255.655 127.727 255.864C127.201 256.068 126.598 256.17 125.92 256.17ZM126.909 246.227L125.756 244.773L124.602 246.227H122.801V246.148L124.955 243.693H126.562L128.71 246.148V246.227H126.909ZM125.756 259.142C125.426 259.142 125.144 259.032 124.909 258.812C124.678 258.593 124.562 258.33 124.562 258.023C124.562 257.716 124.678 257.453 124.909 257.233C125.144 257.013 125.424 256.903 125.75 256.903C126.08 256.903 126.36 257.013 126.591 257.233C126.826 257.453 126.943 257.716 126.943 258.023C126.943 258.33 126.826 258.593 126.591 258.812C126.36 259.032 126.081 259.142 125.756 259.142ZM133.598 250.886V256H131.541V247.273H133.507V248.756H133.609C133.81 248.267 134.13 247.879 134.57 247.591C135.013 247.303 135.56 247.159 136.212 247.159C136.814 247.159 137.339 247.288 137.786 247.545C138.236 247.803 138.585 248.176 138.831 248.665C139.081 249.153 139.204 249.746 139.2 250.443V256H137.143V250.761C137.143 250.178 136.992 249.722 136.689 249.392C136.39 249.062 135.975 248.898 135.445 248.898C135.085 248.898 134.765 248.977 134.484 249.136C134.208 249.292 133.99 249.517 133.831 249.812C133.676 250.108 133.598 250.466 133.598 250.886ZM149.618 247.273V248.864H144.601V247.273H149.618ZM145.839 245.182H147.896V253.375C147.896 253.652 147.938 253.864 148.021 254.011C148.108 254.155 148.222 254.254 148.362 254.307C148.502 254.36 148.658 254.386 148.828 254.386C148.957 254.386 149.074 254.377 149.18 254.358C149.29 254.339 149.374 254.322 149.43 254.307L149.777 255.915C149.667 255.953 149.51 255.994 149.305 256.04C149.105 256.085 148.858 256.112 148.567 256.119C148.052 256.134 147.588 256.057 147.175 255.886C146.762 255.712 146.434 255.443 146.192 255.08C145.953 254.716 145.836 254.261 145.839 253.716V245.182ZM153.849 256.176C153.296 256.176 152.798 256.078 152.355 255.881C151.916 255.68 151.567 255.384 151.31 254.994C151.056 254.604 150.929 254.123 150.929 253.551C150.929 253.059 151.02 252.652 151.202 252.33C151.384 252.008 151.632 251.75 151.946 251.557C152.26 251.364 152.615 251.218 153.009 251.119C153.406 251.017 153.817 250.943 154.241 250.898C154.753 250.845 155.168 250.797 155.486 250.756C155.804 250.71 156.035 250.642 156.179 250.551C156.327 250.456 156.401 250.311 156.401 250.114V250.08C156.401 249.652 156.274 249.32 156.02 249.085C155.766 248.85 155.401 248.733 154.923 248.733C154.42 248.733 154.02 248.843 153.724 249.062C153.433 249.282 153.236 249.542 153.134 249.841L151.213 249.568C151.365 249.038 151.615 248.595 151.963 248.239C152.312 247.879 152.738 247.61 153.241 247.432C153.745 247.25 154.302 247.159 154.912 247.159C155.332 247.159 155.751 247.208 156.168 247.307C156.584 247.405 156.965 247.568 157.31 247.795C157.654 248.019 157.931 248.324 158.139 248.71C158.351 249.097 158.457 249.58 158.457 250.159V256H156.48V254.801H156.412C156.287 255.044 156.111 255.271 155.884 255.483C155.66 255.691 155.378 255.86 155.037 255.989C154.7 256.114 154.304 256.176 153.849 256.176ZM154.384 254.665C154.796 254.665 155.154 254.583 155.457 254.42C155.76 254.254 155.993 254.034 156.156 253.761C156.323 253.489 156.406 253.191 156.406 252.869V251.841C156.342 251.894 156.232 251.943 156.077 251.989C155.925 252.034 155.755 252.074 155.565 252.108C155.376 252.142 155.188 252.172 155.003 252.199C154.817 252.225 154.656 252.248 154.52 252.267C154.213 252.309 153.938 252.377 153.696 252.472C153.454 252.566 153.262 252.699 153.122 252.869C152.982 253.036 152.912 253.252 152.912 253.517C152.912 253.896 153.05 254.182 153.327 254.375C153.603 254.568 153.955 254.665 154.384 254.665ZM154.923 259.142C154.594 259.142 154.312 259.032 154.077 258.812C153.846 258.593 153.73 258.33 153.73 258.023C153.73 257.716 153.846 257.453 154.077 257.233C154.312 257.013 154.592 256.903 154.918 256.903C155.247 256.903 155.527 257.013 155.759 257.233C155.993 257.453 156.111 257.716 156.111 258.023C156.111 258.33 155.993 258.593 155.759 258.812C155.527 259.032 155.249 259.142 154.923 259.142ZM160.526 256V247.273H162.582V256H160.526ZM161.56 246.034C161.234 246.034 160.954 245.926 160.719 245.71C160.484 245.491 160.366 245.227 160.366 244.92C160.366 244.61 160.484 244.347 160.719 244.131C160.954 243.911 161.234 243.801 161.56 243.801C161.889 243.801 162.17 243.911 162.401 244.131C162.635 244.347 162.753 244.61 162.753 244.92C162.753 245.227 162.635 245.491 162.401 245.71C162.17 245.926 161.889 246.034 161.56 246.034ZM170.541 253.261L170.536 250.778H170.865L174.001 247.273H176.405L172.547 251.568H172.121L170.541 253.261ZM168.666 256V244.364H170.723V256H168.666ZM174.143 256L171.303 252.028L172.689 250.58L176.604 256H174.143ZM179.832 250.886V256H177.776V244.364H179.787V248.756H179.889C180.094 248.263 180.41 247.875 180.838 247.591C181.27 247.303 181.819 247.159 182.486 247.159C183.092 247.159 183.62 247.286 184.071 247.54C184.522 247.794 184.87 248.165 185.116 248.653C185.366 249.142 185.491 249.739 185.491 250.443V256H183.435V250.761C183.435 250.174 183.283 249.718 182.98 249.392C182.681 249.062 182.26 248.898 181.719 248.898C181.355 248.898 181.029 248.977 180.741 249.136C180.457 249.292 180.234 249.517 180.071 249.812C179.912 250.108 179.832 250.466 179.832 250.886ZM191.395 256.17C190.543 256.17 189.804 255.983 189.179 255.608C188.554 255.233 188.069 254.708 187.724 254.034C187.384 253.36 187.213 252.572 187.213 251.67C187.213 250.769 187.384 249.979 187.724 249.301C188.069 248.623 188.554 248.097 189.179 247.722C189.804 247.347 190.543 247.159 191.395 247.159C192.247 247.159 192.986 247.347 193.611 247.722C194.236 248.097 194.719 248.623 195.06 249.301C195.404 249.979 195.577 250.769 195.577 251.67C195.577 252.572 195.404 253.36 195.06 254.034C194.719 254.708 194.236 255.233 193.611 255.608C192.986 255.983 192.247 256.17 191.395 256.17ZM191.406 254.523C191.868 254.523 192.255 254.396 192.565 254.142C192.876 253.884 193.107 253.54 193.259 253.108C193.414 252.676 193.491 252.195 193.491 251.665C193.491 251.131 193.414 250.648 193.259 250.216C193.107 249.78 192.876 249.434 192.565 249.176C192.255 248.919 191.868 248.79 191.406 248.79C190.933 248.79 190.539 248.919 190.224 249.176C189.914 249.434 189.681 249.78 189.526 250.216C189.374 250.648 189.298 251.131 189.298 251.665C189.298 252.195 189.374 252.676 189.526 253.108C189.681 253.54 189.914 253.884 190.224 254.142C190.539 254.396 190.933 254.523 191.406 254.523ZM192.548 246.227L191.395 244.773L190.241 246.227H188.44V246.148L190.594 243.693H192.202L194.349 246.148V246.227H192.548ZM199.379 250.886V256H197.322V247.273H199.288V248.756H199.391C199.591 248.267 199.911 247.879 200.351 247.591C200.794 247.303 201.341 247.159 201.993 247.159C202.595 247.159 203.12 247.288 203.567 247.545C204.018 247.803 204.366 248.176 204.612 248.665C204.862 249.153 204.985 249.746 204.982 250.443V256H202.925V250.761C202.925 250.178 202.773 249.722 202.47 249.392C202.171 249.062 201.756 248.898 201.226 248.898C200.866 248.898 200.546 248.977 200.266 249.136C199.989 249.292 199.771 249.517 199.612 249.812C199.457 250.108 199.379 250.466 199.379 250.886ZM210.868 259.455C210.129 259.455 209.495 259.354 208.964 259.153C208.434 258.956 208.008 258.691 207.686 258.358C207.364 258.025 207.141 257.655 207.016 257.25L208.868 256.801C208.951 256.972 209.072 257.14 209.232 257.307C209.391 257.477 209.605 257.617 209.874 257.727C210.146 257.841 210.489 257.898 210.902 257.898C211.485 257.898 211.968 257.756 212.351 257.472C212.733 257.191 212.925 256.729 212.925 256.085V254.432H212.822C212.716 254.644 212.561 254.862 212.357 255.085C212.156 255.309 211.889 255.496 211.555 255.648C211.226 255.799 210.811 255.875 210.311 255.875C209.641 255.875 209.033 255.718 208.487 255.403C207.946 255.085 207.514 254.612 207.192 253.983C206.874 253.35 206.714 252.559 206.714 251.608C206.714 250.65 206.874 249.841 207.192 249.182C207.514 248.519 207.947 248.017 208.493 247.676C209.038 247.331 209.646 247.159 210.317 247.159C210.828 247.159 211.249 247.246 211.578 247.42C211.911 247.591 212.177 247.797 212.374 248.04C212.571 248.278 212.72 248.504 212.822 248.716H212.936V247.273H214.964V256.142C214.964 256.888 214.786 257.506 214.43 257.994C214.074 258.483 213.588 258.848 212.97 259.091C212.353 259.333 211.652 259.455 210.868 259.455ZM210.885 254.261C211.321 254.261 211.692 254.155 211.999 253.943C212.305 253.731 212.538 253.426 212.697 253.028C212.857 252.631 212.936 252.153 212.936 251.597C212.936 251.047 212.857 250.566 212.697 250.153C212.542 249.741 212.311 249.42 212.004 249.193C211.701 248.962 211.328 248.847 210.885 248.847C210.427 248.847 210.044 248.966 209.737 249.205C209.43 249.443 209.199 249.771 209.044 250.188C208.889 250.6 208.811 251.07 208.811 251.597C208.811 252.131 208.889 252.598 209.044 253C209.203 253.398 209.436 253.708 209.743 253.932C210.054 254.152 210.434 254.261 210.885 254.261ZM223.098 250.886V256H221.041V244.364H223.053V248.756H223.155C223.359 248.263 223.676 247.875 224.104 247.591C224.536 247.303 225.085 247.159 225.751 247.159C226.357 247.159 226.886 247.286 227.337 247.54C227.787 247.794 228.136 248.165 228.382 248.653C228.632 249.142 228.757 249.739 228.757 250.443V256H226.7V250.761C226.7 250.174 226.549 249.718 226.246 249.392C225.946 249.062 225.526 248.898 224.984 248.898C224.621 248.898 224.295 248.977 224.007 249.136C223.723 249.292 223.5 249.517 223.337 249.812C223.178 250.108 223.098 250.466 223.098 250.886ZM234.661 256.17C233.808 256.17 233.07 255.983 232.445 255.608C231.82 255.233 231.335 254.708 230.99 254.034C230.649 253.36 230.479 252.572 230.479 251.67C230.479 250.769 230.649 249.979 230.99 249.301C231.335 248.623 231.82 248.097 232.445 247.722C233.07 247.347 233.808 247.159 234.661 247.159C235.513 247.159 236.251 247.347 236.876 247.722C237.501 248.097 237.984 248.623 238.325 249.301C238.67 249.979 238.842 250.769 238.842 251.67C238.842 252.572 238.67 253.36 238.325 254.034C237.984 254.708 237.501 255.233 236.876 255.608C236.251 255.983 235.513 256.17 234.661 256.17ZM234.672 254.523C235.134 254.523 235.52 254.396 235.831 254.142C236.142 253.884 236.373 253.54 236.524 253.108C236.679 252.676 236.757 252.195 236.757 251.665C236.757 251.131 236.679 250.648 236.524 250.216C236.373 249.78 236.142 249.434 235.831 249.176C235.52 248.919 235.134 248.79 234.672 248.79C234.198 248.79 233.804 248.919 233.49 249.176C233.179 249.434 232.946 249.78 232.791 250.216C232.64 250.648 232.564 251.131 232.564 251.665C232.564 252.195 232.64 252.676 232.791 253.108C232.946 253.54 233.179 253.884 233.49 254.142C233.804 254.396 234.198 254.523 234.672 254.523ZM235.371 244.5L237.587 246.369H236.001L234.649 245.227L233.291 246.369H231.706L233.922 244.5H235.371ZM238.001 245.341H236.848L236.774 244.42C237.096 244.402 237.331 244.36 237.479 244.295C237.63 244.227 237.706 244.123 237.706 243.983C237.706 243.805 237.611 243.684 237.422 243.619C237.232 243.551 236.992 243.517 236.7 243.517L236.757 242.659C237.5 242.659 238.062 242.773 238.445 243C238.831 243.227 239.024 243.54 239.024 243.938C239.024 244.244 238.918 244.473 238.706 244.625C238.494 244.777 238.259 244.871 238.001 244.909V245.341ZM248.915 247.273V248.864H243.898V247.273H248.915ZM245.136 245.182H247.193V253.375C247.193 253.652 247.235 253.864 247.318 254.011C247.405 254.155 247.519 254.254 247.659 254.307C247.799 254.36 247.955 254.386 248.125 254.386C248.254 254.386 248.371 254.377 248.477 254.358C248.587 254.339 248.67 254.322 248.727 254.307L249.074 255.915C248.964 255.953 248.807 255.994 248.602 256.04C248.402 256.085 248.155 256.112 247.864 256.119C247.348 256.134 246.884 256.057 246.472 255.886C246.059 255.712 245.731 255.443 245.489 255.08C245.25 254.716 245.133 254.261 245.136 253.716V245.182ZM250.635 256V247.273H252.629V248.727H252.72C252.879 248.223 253.152 247.835 253.538 247.562C253.929 247.286 254.374 247.148 254.874 247.148C254.987 247.148 255.114 247.153 255.254 247.165C255.398 247.172 255.518 247.186 255.612 247.205V249.097C255.525 249.066 255.387 249.04 255.197 249.017C255.012 248.991 254.832 248.977 254.658 248.977C254.283 248.977 253.946 249.059 253.646 249.222C253.351 249.381 253.118 249.602 252.947 249.886C252.777 250.17 252.692 250.498 252.692 250.869V256H250.635ZM264.119 246.716H265.494C265.494 247.64 265.278 248.367 264.847 248.898C264.419 249.424 263.706 249.688 262.71 249.688V248.722C263.104 248.722 263.402 248.64 263.602 248.477C263.807 248.314 263.943 248.083 264.011 247.784C264.083 247.481 264.119 247.125 264.119 246.716ZM260.426 256.17C259.574 256.17 258.835 255.983 258.21 255.608C257.585 255.233 257.1 254.708 256.756 254.034C256.415 253.36 256.244 252.572 256.244 251.67C256.244 250.769 256.415 249.979 256.756 249.301C257.1 248.623 257.585 248.097 258.21 247.722C258.835 247.347 259.574 247.159 260.426 247.159C261.278 247.159 262.017 247.347 262.642 247.722C263.267 248.097 263.75 248.623 264.091 249.301C264.436 249.979 264.608 250.769 264.608 251.67C264.608 252.572 264.436 253.36 264.091 254.034C263.75 254.708 263.267 255.233 262.642 255.608C262.017 255.983 261.278 256.17 260.426 256.17ZM260.438 254.523C260.9 254.523 261.286 254.396 261.597 254.142C261.907 253.884 262.138 253.54 262.29 253.108C262.445 252.676 262.523 252.195 262.523 251.665C262.523 251.131 262.445 250.648 262.29 250.216C262.138 249.78 261.907 249.434 261.597 249.176C261.286 248.919 260.9 248.79 260.438 248.79C259.964 248.79 259.57 248.919 259.256 249.176C258.945 249.434 258.712 249.78 258.557 250.216C258.405 250.648 258.33 251.131 258.33 251.665C258.33 252.195 258.405 252.676 258.557 253.108C258.712 253.54 258.945 253.884 259.256 254.142C259.57 254.396 259.964 254.523 260.438 254.523ZM260.432 259.142C260.102 259.142 259.82 259.032 259.585 258.812C259.354 258.593 259.239 258.33 259.239 258.023C259.239 257.716 259.354 257.453 259.585 257.233C259.82 257.013 260.1 256.903 260.426 256.903C260.756 256.903 261.036 257.013 261.267 257.233C261.502 257.453 261.619 257.716 261.619 258.023C261.619 258.33 261.502 258.593 261.267 258.812C261.036 259.032 260.758 259.142 260.432 259.142ZM33.4148 266.273V267.864H28.3977V266.273H33.4148ZM29.6364 264.182H31.6932V272.375C31.6932 272.652 31.7348 272.864 31.8182 273.011C31.9053 273.155 32.0189 273.254 32.1591 273.307C32.2992 273.36 32.4545 273.386 32.625 273.386C32.7538 273.386 32.8712 273.377 32.9773 273.358C33.0871 273.339 33.1705 273.322 33.2273 273.307L33.5739 274.915C33.464 274.953 33.3068 274.994 33.1023 275.04C32.9015 275.085 32.6553 275.112 32.3636 275.119C31.8485 275.134 31.3845 275.057 30.9716 274.886C30.5587 274.712 30.2311 274.443 29.9886 274.08C29.75 273.716 29.6326 273.261 29.6364 272.716V264.182ZM35.1349 275V266.273H37.1293V267.727H37.2202C37.3793 267.223 37.652 266.835 38.0384 266.562C38.4285 266.286 38.8736 266.148 39.3736 266.148C39.4872 266.148 39.6141 266.153 39.7543 266.165C39.8982 266.172 40.0175 266.186 40.1122 266.205V268.097C40.0251 268.066 39.8868 268.04 39.6974 268.017C39.5118 267.991 39.3319 267.977 39.1577 267.977C38.7827 267.977 38.4455 268.059 38.1463 268.222C37.8509 268.381 37.6179 268.602 37.4474 268.886C37.277 269.17 37.1918 269.498 37.1918 269.869V275H35.1349ZM43.8338 275.176C43.2808 275.176 42.7827 275.078 42.3395 274.881C41.9001 274.68 41.5516 274.384 41.294 273.994C41.0402 273.604 40.9134 273.123 40.9134 272.551C40.9134 272.059 41.0043 271.652 41.1861 271.33C41.3679 271.008 41.616 270.75 41.9304 270.557C42.2448 270.364 42.599 270.218 42.9929 270.119C43.3906 270.017 43.8016 269.943 44.2259 269.898C44.7372 269.845 45.152 269.797 45.4702 269.756C45.7884 269.71 46.0194 269.642 46.1634 269.551C46.3111 269.456 46.3849 269.311 46.3849 269.114V269.08C46.3849 268.652 46.258 268.32 46.0043 268.085C45.7505 267.85 45.3849 267.733 44.9077 267.733C44.4039 267.733 44.0043 267.843 43.7088 268.062C43.4171 268.282 43.2202 268.542 43.1179 268.841L41.1974 268.568C41.349 268.038 41.599 267.595 41.9474 267.239C42.2959 266.879 42.7221 266.61 43.2259 266.432C43.7296 266.25 44.2865 266.159 44.8963 266.159C45.3168 266.159 45.7353 266.208 46.152 266.307C46.5687 266.405 46.9493 266.568 47.294 266.795C47.6387 267.019 47.9152 267.324 48.1236 267.71C48.3357 268.097 48.4418 268.58 48.4418 269.159V275H46.4645V273.801H46.3963C46.2713 274.044 46.0952 274.271 45.8679 274.483C45.6444 274.691 45.3622 274.86 45.0213 274.989C44.6842 275.114 44.2884 275.176 43.8338 275.176ZM44.3679 273.665C44.7808 273.665 45.1387 273.583 45.4418 273.42C45.7448 273.254 45.9777 273.034 46.1406 272.761C46.3073 272.489 46.3906 272.191 46.3906 271.869V270.841C46.3262 270.894 46.2164 270.943 46.0611 270.989C45.9096 271.034 45.7391 271.074 45.5497 271.108C45.3603 271.142 45.1728 271.172 44.9872 271.199C44.8016 271.225 44.6406 271.248 44.5043 271.267C44.1974 271.309 43.9228 271.377 43.6804 271.472C43.438 271.566 43.2467 271.699 43.1065 271.869C42.9664 272.036 42.8963 272.252 42.8963 272.517C42.8963 272.896 43.0346 273.182 43.3111 273.375C43.5876 273.568 43.9399 273.665 44.3679 273.665ZM52.5668 269.886V275H50.5099V266.273H52.4759V267.756H52.5781C52.7789 267.267 53.099 266.879 53.5384 266.591C53.9815 266.303 54.5289 266.159 55.1804 266.159C55.7827 266.159 56.3073 266.288 56.7543 266.545C57.205 266.803 57.5535 267.176 57.7997 267.665C58.0497 268.153 58.1728 268.746 58.169 269.443V275H56.1122V269.761C56.1122 269.178 55.9607 268.722 55.6577 268.392C55.3584 268.062 54.9437 267.898 54.4134 267.898C54.0535 267.898 53.7334 267.977 53.4531 268.136C53.1766 268.292 52.9588 268.517 52.7997 268.812C52.6444 269.108 52.5668 269.466 52.5668 269.886ZM64.0554 278.455C63.3168 278.455 62.6823 278.354 62.152 278.153C61.6217 277.956 61.1955 277.691 60.8736 277.358C60.5516 277.025 60.3281 276.655 60.2031 276.25L62.0554 275.801C62.1387 275.972 62.2599 276.14 62.419 276.307C62.5781 276.477 62.7921 276.617 63.0611 276.727C63.3338 276.841 63.6766 276.898 64.0895 276.898C64.6728 276.898 65.1558 276.756 65.5384 276.472C65.9209 276.191 66.1122 275.729 66.1122 275.085V273.432H66.0099C65.9039 273.644 65.7486 273.862 65.544 274.085C65.3433 274.309 65.0762 274.496 64.7429 274.648C64.4134 274.799 63.9986 274.875 63.4986 274.875C62.8281 274.875 62.2202 274.718 61.6747 274.403C61.133 274.085 60.7012 273.612 60.3793 272.983C60.0611 272.35 59.902 271.559 59.902 270.608C59.902 269.65 60.0611 268.841 60.3793 268.182C60.7012 267.519 61.1349 267.017 61.6804 266.676C62.2259 266.331 62.8338 266.159 63.5043 266.159C64.0156 266.159 64.4361 266.246 64.7656 266.42C65.099 266.591 65.3641 266.797 65.5611 267.04C65.758 267.278 65.9077 267.504 66.0099 267.716H66.1236V266.273H68.152V275.142C68.152 275.888 67.974 276.506 67.6179 276.994C67.2618 277.483 66.7751 277.848 66.1577 278.091C65.5402 278.333 64.8395 278.455 64.0554 278.455ZM64.0724 273.261C64.508 273.261 64.8793 273.155 65.1861 272.943C65.4929 272.731 65.7259 272.426 65.8849 272.028C66.044 271.631 66.1236 271.153 66.1236 270.597C66.1236 270.047 66.044 269.566 65.8849 269.153C65.7296 268.741 65.4986 268.42 65.1918 268.193C64.8887 267.962 64.5156 267.847 64.0724 267.847C63.6141 267.847 63.2315 267.966 62.9247 268.205C62.6179 268.443 62.3868 268.771 62.2315 269.188C62.0762 269.6 61.9986 270.07 61.9986 270.597C61.9986 271.131 62.0762 271.598 62.2315 272C62.3906 272.398 62.6236 272.708 62.9304 272.932C63.241 273.152 63.6217 273.261 64.0724 273.261ZM76.0298 275L73.5639 266.273H75.6605L77.1946 272.409H77.2741L78.8423 266.273H80.9162L82.4844 272.375H82.5696L84.081 266.273H86.1832L83.7116 275H81.5696L79.9332 269.102H79.8139L78.1776 275H76.0298ZM91.233 275.17C90.358 275.17 89.6023 274.989 88.9659 274.625C88.3333 274.258 87.8466 273.739 87.5057 273.068C87.1648 272.394 86.9943 271.6 86.9943 270.688C86.9943 269.79 87.1648 269.002 87.5057 268.324C87.8504 267.642 88.3314 267.112 88.9489 266.733C89.5663 266.35 90.2917 266.159 91.125 266.159C91.6629 266.159 92.1705 266.246 92.6477 266.42C93.1288 266.591 93.553 266.856 93.9205 267.216C94.2917 267.576 94.5833 268.034 94.7955 268.591C95.0076 269.144 95.1136 269.803 95.1136 270.568V271.199H87.9602V269.812H93.142C93.1383 269.419 93.053 269.068 92.8864 268.761C92.7197 268.451 92.4867 268.206 92.1875 268.028C91.892 267.85 91.5473 267.761 91.1534 267.761C90.733 267.761 90.3636 267.864 90.0455 268.068C89.7273 268.269 89.4792 268.534 89.3011 268.864C89.1269 269.189 89.0379 269.547 89.0341 269.938V271.148C89.0341 271.655 89.1269 272.091 89.3125 272.455C89.4981 272.814 89.7576 273.091 90.0909 273.284C90.4242 273.473 90.8144 273.568 91.2614 273.568C91.5606 273.568 91.8314 273.527 92.0739 273.443C92.3163 273.356 92.5265 273.229 92.7045 273.062C92.8826 272.896 93.017 272.689 93.108 272.443L95.0284 272.659C94.9072 273.167 94.6761 273.61 94.3352 273.989C93.9981 274.364 93.5663 274.655 93.0398 274.864C92.5133 275.068 91.911 275.17 91.233 275.17ZM96.9446 275V263.364H99.0014V267.716H99.0866C99.1927 267.504 99.3423 267.278 99.5355 267.04C99.7287 266.797 99.9901 266.591 100.32 266.42C100.649 266.246 101.07 266.159 101.581 266.159C102.255 266.159 102.863 266.331 103.405 266.676C103.95 267.017 104.382 267.523 104.7 268.193C105.022 268.86 105.183 269.678 105.183 270.648C105.183 271.606 105.026 272.42 104.712 273.091C104.397 273.761 103.969 274.273 103.428 274.625C102.886 274.977 102.272 275.153 101.587 275.153C101.087 275.153 100.672 275.07 100.342 274.903C100.013 274.737 99.7476 274.536 99.5469 274.301C99.3499 274.062 99.1965 273.837 99.0866 273.625H98.9673V275H96.9446ZM98.9616 270.636C98.9616 271.201 99.0412 271.695 99.2003 272.119C99.3632 272.544 99.5961 272.875 99.8991 273.114C100.206 273.348 100.577 273.466 101.013 273.466C101.467 273.466 101.848 273.345 102.155 273.102C102.462 272.856 102.693 272.521 102.848 272.097C103.007 271.669 103.087 271.182 103.087 270.636C103.087 270.095 103.009 269.614 102.854 269.193C102.698 268.773 102.467 268.443 102.161 268.205C101.854 267.966 101.471 267.847 101.013 267.847C100.573 267.847 100.2 267.962 99.8935 268.193C99.5866 268.424 99.3537 268.748 99.1946 269.165C99.0393 269.581 98.9616 270.072 98.9616 270.636ZM112.957 269.886V275H110.901V266.273H112.866V267.756H112.969C113.17 267.267 113.49 266.879 113.929 266.591C114.372 266.303 114.92 266.159 115.571 266.159C116.173 266.159 116.698 266.288 117.145 266.545C117.596 266.803 117.944 267.176 118.19 267.665C118.44 268.153 118.563 268.746 118.56 269.443V275H116.503V269.761C116.503 269.178 116.351 268.722 116.048 268.392C115.749 268.062 115.334 267.898 114.804 267.898C114.444 267.898 114.124 267.977 113.844 268.136C113.567 268.292 113.349 268.517 113.19 268.812C113.035 269.108 112.957 269.466 112.957 269.886ZM123.162 275.176C122.609 275.176 122.111 275.078 121.668 274.881C121.228 274.68 120.88 274.384 120.622 273.994C120.368 273.604 120.241 273.123 120.241 272.551C120.241 272.059 120.332 271.652 120.514 271.33C120.696 271.008 120.944 270.75 121.259 270.557C121.573 270.364 121.927 270.218 122.321 270.119C122.719 270.017 123.13 269.943 123.554 269.898C124.065 269.845 124.48 269.797 124.798 269.756C125.116 269.71 125.348 269.642 125.491 269.551C125.639 269.456 125.713 269.311 125.713 269.114V269.08C125.713 268.652 125.586 268.32 125.332 268.085C125.079 267.85 124.713 267.733 124.236 267.733C123.732 267.733 123.332 267.843 123.037 268.062C122.745 268.282 122.548 268.542 122.446 268.841L120.526 268.568C120.677 268.038 120.927 267.595 121.276 267.239C121.624 266.879 122.05 266.61 122.554 266.432C123.058 266.25 123.615 266.159 124.224 266.159C124.645 266.159 125.063 266.208 125.48 266.307C125.897 266.405 126.277 266.568 126.622 266.795C126.967 267.019 127.243 267.324 127.452 267.71C127.664 268.097 127.77 268.58 127.77 269.159V275H125.793V273.801H125.724C125.599 274.044 125.423 274.271 125.196 274.483C124.973 274.691 124.69 274.86 124.349 274.989C124.012 275.114 123.616 275.176 123.162 275.176ZM123.696 273.665C124.109 273.665 124.467 273.583 124.77 273.42C125.073 273.254 125.306 273.034 125.469 272.761C125.635 272.489 125.719 272.191 125.719 271.869V270.841C125.654 270.894 125.545 270.943 125.389 270.989C125.238 271.034 125.067 271.074 124.878 271.108C124.688 271.142 124.501 271.172 124.315 271.199C124.13 271.225 123.969 271.248 123.832 271.267C123.526 271.309 123.251 271.377 123.009 271.472C122.766 271.566 122.575 271.699 122.435 271.869C122.295 272.036 122.224 272.252 122.224 272.517C122.224 272.896 122.363 273.182 122.639 273.375C122.916 273.568 123.268 273.665 123.696 273.665ZM123.565 265.125L121.821 262.528H123.838L125.105 265.125H123.565ZM130.804 278.273C130.524 278.273 130.264 278.25 130.026 278.205C129.791 278.163 129.603 278.114 129.463 278.057L129.94 276.455C130.24 276.542 130.507 276.583 130.741 276.58C130.976 276.576 131.183 276.502 131.361 276.358C131.543 276.218 131.696 275.983 131.821 275.653L131.997 275.182L128.832 266.273H131.014L133.026 272.864H133.116L135.134 266.273H137.321L133.827 276.057C133.664 276.519 133.448 276.915 133.179 277.244C132.91 277.578 132.58 277.831 132.19 278.006C131.804 278.184 131.342 278.273 130.804 278.273Z" fill="black"/>
<path d="M162.811 126.652C162.399 126.652 161.998 126.704 161.615 126.8V125.414C161.615 122.717 159.421 120.522 156.723 120.522C155.718 120.522 154.783 120.827 154.005 121.348C153.127 120.513 151.94 120 150.636 120C148.405 120 146.519 121.5 145.933 123.545C145.418 123.361 144.865 123.261 144.288 123.261C141.59 123.261 139.396 125.455 139.396 128.153V136.257C138.81 136.029 138.174 135.904 137.509 135.904C134.635 135.904 132.297 138.241 132.297 141.115V150.851C132.297 157.032 136.059 168.98 150.296 169.957C150.714 169.985 151.135 170 151.548 170C160.456 170 167.703 162.932 167.703 154.243V131.544C167.703 128.847 165.509 126.652 162.811 126.652ZM151.548 167.26C151.197 167.26 150.844 167.248 150.483 167.224C137.333 166.322 135.036 154.854 135.036 150.851V141.115C135.036 139.75 136.144 138.643 137.509 138.643C138.874 138.643 139.982 139.75 139.982 141.115V148.634H142.135V128.153C142.135 126.964 143.099 126 144.288 126C145.476 126 146.44 126.964 146.44 128.153V143.09H148.483V124.892C148.483 123.703 149.447 122.74 150.636 122.74C151.824 122.74 152.788 123.703 152.788 124.892V143.09H154.571V125.414C154.571 124.225 155.535 123.262 156.723 123.262C157.912 123.262 158.876 124.225 158.876 125.414V143.09H160.659V131.544C160.659 130.356 161.623 129.392 162.811 129.392C164 129.392 164.964 130.356 164.964 131.544V154.243C164.964 160.991 159.516 167.26 151.548 167.26Z" fill="black"/>
<rect x="51.5" y="457.5" width="197" height="32" rx="4.5" stroke="#7A949B" stroke-width="3"/>
<rect x="51.5" y="457.5" width="197" height="32" rx="4.5" stroke="#7A949B" stroke-width="3"/>
<path d="M110.717 466.455H113.793V475.901C113.793 476.961 113.539 477.889 113.033 478.685C112.531 479.48 111.828 480.1 110.923 480.545C110.019 480.986 108.965 481.206 107.763 481.206C106.555 481.206 105.5 480.986 104.595 480.545C103.691 480.1 102.988 479.48 102.486 478.685C101.984 477.889 101.733 476.961 101.733 475.901V466.455H104.808V475.638C104.808 476.192 104.929 476.684 105.17 477.115C105.417 477.546 105.762 477.884 106.207 478.131C106.652 478.377 107.171 478.5 107.763 478.5C108.359 478.5 108.878 478.377 109.318 478.131C109.763 477.884 110.107 477.546 110.348 477.115C110.594 476.684 110.717 476.192 110.717 475.638V466.455ZM108.878 464.892H106.634L106.477 463.614C106.979 463.59 107.337 463.524 107.55 463.415C107.763 463.301 107.867 463.152 107.862 462.967C107.867 462.712 107.732 462.539 107.457 462.449C107.188 462.359 106.849 462.314 106.442 462.314L106.52 460.943C107.784 460.943 108.745 461.114 109.403 461.455C110.066 461.795 110.395 462.269 110.391 462.875C110.395 463.306 110.239 463.633 109.922 463.855C109.609 464.073 109.261 464.21 108.878 464.267V464.892ZM119.292 474.693V481H116.266V470.091H119.15V472.016H119.277C119.519 471.381 119.924 470.879 120.492 470.51C121.06 470.136 121.749 469.949 122.559 469.949C123.316 469.949 123.977 470.115 124.54 470.446C125.104 470.777 125.542 471.251 125.854 471.866C126.167 472.477 126.323 473.206 126.323 474.054V481H123.297V474.594C123.302 473.926 123.132 473.405 122.786 473.031C122.44 472.652 121.964 472.463 121.358 472.463C120.951 472.463 120.591 472.551 120.279 472.726C119.971 472.901 119.73 473.157 119.554 473.493C119.384 473.824 119.296 474.224 119.292 474.693ZM133.622 485.318C132.642 485.318 131.802 485.183 131.101 484.913C130.405 484.648 129.851 484.286 129.439 483.827C129.027 483.367 128.759 482.851 128.636 482.278L131.435 481.902C131.52 482.12 131.655 482.323 131.839 482.513C132.024 482.702 132.268 482.854 132.571 482.967C132.879 483.086 133.253 483.145 133.693 483.145C134.351 483.145 134.893 482.984 135.32 482.662C135.75 482.345 135.966 481.812 135.966 481.064V479.068H135.838C135.705 479.371 135.507 479.658 135.241 479.928C134.976 480.197 134.635 480.418 134.219 480.588C133.802 480.759 133.305 480.844 132.727 480.844C131.908 480.844 131.162 480.654 130.49 480.276C129.822 479.892 129.29 479.307 128.892 478.521C128.499 477.731 128.303 476.732 128.303 475.524C128.303 474.288 128.504 473.256 128.906 472.428C129.309 471.599 129.844 470.979 130.511 470.567C131.184 470.155 131.92 469.949 132.72 469.949C133.331 469.949 133.842 470.053 134.254 470.261C134.666 470.465 134.998 470.721 135.249 471.028C135.504 471.331 135.701 471.63 135.838 471.923H135.952V470.091H138.956V481.107C138.956 482.035 138.729 482.811 138.274 483.436C137.82 484.061 137.19 484.53 136.385 484.842C135.585 485.16 134.664 485.318 133.622 485.318ZM133.686 478.571C134.174 478.571 134.586 478.45 134.922 478.209C135.263 477.963 135.523 477.612 135.703 477.158C135.888 476.698 135.98 476.149 135.98 475.51C135.98 474.871 135.89 474.317 135.71 473.848C135.53 473.375 135.27 473.008 134.929 472.747C134.588 472.487 134.174 472.357 133.686 472.357C133.189 472.357 132.77 472.491 132.429 472.761C132.088 473.027 131.83 473.396 131.655 473.869C131.48 474.343 131.392 474.89 131.392 475.51C131.392 476.14 131.48 476.684 131.655 477.143C131.835 477.598 132.093 477.951 132.429 478.202C132.77 478.448 133.189 478.571 133.686 478.571ZM149.018 474.693V481H145.993V466.455H148.933V472.016H149.061C149.307 471.372 149.705 470.867 150.254 470.503C150.803 470.134 151.492 469.949 152.321 469.949C153.078 469.949 153.739 470.115 154.302 470.446C154.87 470.773 155.311 471.244 155.623 471.859C155.94 472.47 156.097 473.202 156.092 474.054V481H153.066V474.594C153.071 473.921 152.901 473.398 152.555 473.024C152.214 472.65 151.736 472.463 151.12 472.463C150.708 472.463 150.344 472.551 150.027 472.726C149.714 472.901 149.468 473.157 149.288 473.493C149.113 473.824 149.023 474.224 149.018 474.693ZM163.402 481.213C162.299 481.213 161.345 480.979 160.54 480.51C159.74 480.036 159.122 479.378 158.686 478.536C158.25 477.688 158.033 476.705 158.033 475.588C158.033 474.461 158.25 473.476 158.686 472.634C159.122 471.786 159.74 471.128 160.54 470.659C161.345 470.186 162.299 469.949 163.402 469.949C164.505 469.949 165.457 470.186 166.257 470.659C167.062 471.128 167.682 471.786 168.118 472.634C168.554 473.476 168.771 474.461 168.771 475.588C168.771 476.705 168.554 477.688 168.118 478.536C167.682 479.378 167.062 480.036 166.257 480.51C165.457 480.979 164.505 481.213 163.402 481.213ZM163.416 478.869C163.918 478.869 164.337 478.727 164.673 478.443C165.009 478.154 165.263 477.761 165.433 477.264C165.608 476.767 165.696 476.201 165.696 475.567C165.696 474.932 165.608 474.366 165.433 473.869C165.263 473.372 165.009 472.979 164.673 472.69C164.337 472.402 163.918 472.257 163.416 472.257C162.91 472.257 162.483 472.402 162.138 472.69C161.797 472.979 161.539 473.372 161.364 473.869C161.193 474.366 161.108 474.932 161.108 475.567C161.108 476.201 161.193 476.767 161.364 477.264C161.539 477.761 161.797 478.154 162.138 478.443C162.483 478.727 162.91 478.869 163.416 478.869ZM164.83 468.784L163.402 467.051L161.974 468.784H159.396V468.685L162.273 465.56H164.524L167.408 468.685V468.784H164.83ZM163.402 485.084C162.952 485.084 162.566 484.935 162.244 484.636C161.922 484.338 161.761 483.978 161.761 483.557C161.761 483.135 161.922 482.776 162.244 482.477C162.566 482.179 162.952 482.03 163.402 482.03C163.852 482.03 164.235 482.179 164.553 482.477C164.875 482.776 165.036 483.135 165.036 483.557C165.036 483.978 164.875 484.338 164.553 484.636C164.235 484.935 163.852 485.084 163.402 485.084ZM181.17 470.091V472.364H174.6V470.091H181.17ZM176.092 467.477H179.118V477.648C179.118 477.927 179.16 478.145 179.245 478.301C179.331 478.453 179.449 478.559 179.6 478.621C179.757 478.682 179.937 478.713 180.14 478.713C180.282 478.713 180.424 478.701 180.566 478.678C180.708 478.649 180.817 478.628 180.893 478.614L181.369 480.865C181.217 480.912 181.004 480.967 180.73 481.028C180.455 481.095 180.121 481.135 179.728 481.149C178.999 481.178 178.36 481.08 177.811 480.858C177.266 480.635 176.842 480.29 176.539 479.821C176.236 479.352 176.087 478.76 176.092 478.045V467.477ZM187.953 481.213C186.85 481.213 185.895 480.979 185.091 480.51C184.29 480.036 183.672 479.378 183.237 478.536C182.801 477.688 182.583 476.705 182.583 475.588C182.583 474.461 182.801 473.476 183.237 472.634C183.672 471.786 184.29 471.128 185.091 470.659C185.895 470.186 186.85 469.949 187.953 469.949C189.056 469.949 190.008 470.186 190.808 470.659C191.613 471.128 192.233 471.786 192.669 472.634C193.104 473.476 193.322 474.461 193.322 475.588C193.322 476.705 193.104 477.688 192.669 478.536C192.233 479.378 191.613 480.036 190.808 480.51C190.008 480.979 189.056 481.213 187.953 481.213ZM187.967 478.869C188.469 478.869 188.888 478.727 189.224 478.443C189.56 478.154 189.814 477.761 189.984 477.264C190.159 476.767 190.247 476.201 190.247 475.567C190.247 474.932 190.159 474.366 189.984 473.869C189.814 473.372 189.56 472.979 189.224 472.69C188.888 472.402 188.469 472.257 187.967 472.257C187.46 472.257 187.034 472.402 186.689 472.69C186.348 472.979 186.09 473.372 185.914 473.869C185.744 474.366 185.659 474.932 185.659 475.567C185.659 476.201 185.744 476.767 185.914 477.264C186.09 477.761 186.348 478.154 186.689 478.443C187.034 478.727 187.46 478.869 187.967 478.869ZM189.38 468.784L187.953 467.051L186.525 468.784H183.947V468.685L186.824 465.56H189.075L191.958 468.685V468.784H189.38ZM195.289 481V470.091H198.315V481H195.289ZM196.809 468.685C196.359 468.685 195.974 468.536 195.652 468.237C195.334 467.934 195.176 467.572 195.176 467.151C195.176 466.734 195.334 466.376 195.652 466.078C195.974 465.775 196.359 465.624 196.809 465.624C197.259 465.624 197.643 465.775 197.96 466.078C198.282 466.376 198.443 466.734 198.443 467.151C198.443 467.572 198.282 467.934 197.96 468.237C197.643 468.536 197.259 468.685 196.809 468.685Z" fill="#7A949B"/>
<path d="M78.2318 510.236L77.4378 515H77.1423L78.7119 505.545H79.0074L78.4349 509.036H78.4719C78.6934 508.666 79.0135 508.371 79.4321 508.149C79.8537 507.928 80.3092 507.817 80.7986 507.817C81.2725 507.817 81.6742 507.92 82.0035 508.126C82.3328 508.332 82.5698 508.617 82.7144 508.98C82.859 509.343 82.8914 509.762 82.8113 510.236L82.0173 515H81.7219L82.5159 510.236C82.6175 509.608 82.5097 509.097 82.1927 508.703C81.8788 508.309 81.4079 508.112 80.7801 508.112C80.3615 508.112 79.9707 508.203 79.6075 508.385C79.2474 508.566 78.9443 508.817 78.6981 509.137C78.4549 509.457 78.2995 509.823 78.2318 510.236ZM89.4983 512.673L90.2923 507.909H90.5878L89.406 515H89.1105L89.2952 513.874H89.2583C89.0367 514.243 88.7151 514.538 88.2934 514.76C87.8749 514.982 87.4209 515.092 86.9316 515.092C86.4576 515.092 86.056 514.989 85.7267 514.783C85.3973 514.577 85.1604 514.292 85.0157 513.929C84.8711 513.566 84.8387 513.147 84.9188 512.673L85.7128 507.909H86.0083L85.2142 512.673C85.1127 513.301 85.225 513.812 85.5512 514.206C85.8805 514.6 86.3591 514.797 86.9869 514.797C87.4055 514.797 87.7918 514.706 88.1457 514.525C88.5027 514.343 88.7997 514.092 89.0367 513.772C89.2767 513.452 89.4306 513.086 89.4983 512.673ZM91.7996 517.659C91.6796 517.659 91.555 517.642 91.4257 517.608C91.2995 517.578 91.1718 517.533 91.0425 517.474L91.1903 517.216C91.4611 517.348 91.7242 517.393 91.9797 517.35C92.2382 517.31 92.4813 517.188 92.7091 516.985C92.9368 516.785 93.1415 516.511 93.3231 516.163L93.877 515.111L92.5106 507.909H92.806L94.0894 514.631H94.1263L97.6441 507.909H97.9765L93.5908 516.293C93.4339 516.591 93.2584 516.842 93.0645 517.045C92.8737 517.248 92.6706 517.401 92.4552 517.502C92.2397 517.607 92.0212 517.659 91.7996 517.659ZM99.8011 510.236L99.0071 515H98.7116L99.8935 507.909H100.189L100.004 509.036H100.041C100.263 508.666 100.583 508.371 101.001 508.149C101.423 507.928 101.879 507.817 102.368 507.817C102.842 507.817 103.243 507.92 103.573 508.126C103.902 508.332 104.139 508.617 104.284 508.98C104.428 509.343 104.461 509.762 104.381 510.236L103.587 515H103.291L104.085 510.236C104.187 509.608 104.079 509.097 103.762 508.703C103.448 508.309 102.977 508.112 102.349 508.112C101.931 508.112 101.54 508.203 101.177 508.385C100.817 508.566 100.514 508.817 100.267 509.137C100.024 509.457 99.8688 509.823 99.8011 510.236ZM107.19 510.236L106.396 515H106.1L107.67 505.545H107.965L107.393 509.036H107.43C107.651 508.666 107.972 508.371 108.39 508.149C108.812 507.928 109.267 507.817 109.757 507.817C110.231 507.817 110.632 507.92 110.961 508.126C111.291 508.332 111.528 508.617 111.672 508.98C111.817 509.343 111.849 509.762 111.769 510.236L110.975 515H110.68L111.474 510.236C111.575 509.608 111.468 509.097 111.151 508.703C110.837 508.309 110.366 508.112 109.738 508.112C109.32 508.112 108.929 508.203 108.566 508.385C108.205 508.566 107.902 508.817 107.656 509.137C107.413 509.457 107.258 509.823 107.19 510.236ZM117.551 510.799L117.496 511.094H113.969L114.025 510.799H117.551ZM125.246 507.909L121.534 515H121.128L119.78 507.909H120.076L121.359 514.631H121.396L124.914 507.909H125.246ZM130.949 512.673L131.743 507.909H132.038L130.856 515H130.561L130.745 513.874H130.708C130.487 514.243 130.165 514.538 129.744 514.76C129.325 514.982 128.871 515.092 128.382 515.092C127.908 515.092 127.506 514.989 127.177 514.783C126.848 514.577 126.611 514.292 126.466 513.929C126.321 513.566 126.289 513.147 126.369 512.673L127.163 507.909H127.458L126.664 512.673C126.563 513.301 126.675 513.812 127.001 514.206C127.331 514.6 127.809 514.797 128.437 514.797C128.856 514.797 129.242 514.706 129.596 514.525C129.953 514.343 130.25 514.092 130.487 513.772C130.727 513.452 130.881 513.086 130.949 512.673ZM137.802 517.511C137.051 517.511 136.371 517.361 135.761 517.059C135.152 516.757 134.641 516.34 134.229 515.808C133.816 515.279 133.527 514.663 133.361 513.961C133.198 513.26 133.182 512.51 133.314 511.713C133.444 510.91 133.707 510.157 134.104 509.456C134.501 508.754 134.993 508.138 135.581 507.609C136.172 507.08 136.821 506.666 137.529 506.367C138.24 506.066 138.971 505.915 139.722 505.915C140.47 505.915 141.146 506.066 141.749 506.367C142.355 506.666 142.863 507.08 143.272 507.609C143.682 508.138 143.969 508.754 144.135 509.456C144.302 510.157 144.32 510.91 144.191 511.713C144.123 512.132 144.003 512.519 143.831 512.876C143.658 513.233 143.449 513.546 143.203 513.814C142.957 514.078 142.683 514.284 142.381 514.432C142.083 514.577 141.769 514.649 141.439 514.649C141.193 514.649 141.006 514.605 140.876 514.515C140.747 514.423 140.669 514.274 140.641 514.067C140.613 513.858 140.627 513.578 140.682 513.227H140.645C140.448 513.535 140.215 513.806 139.944 514.04C139.676 514.271 139.385 514.452 139.071 514.585C138.76 514.714 138.442 514.778 138.116 514.778C137.752 514.778 137.425 514.7 137.132 514.543C136.84 514.383 136.597 514.163 136.403 513.883C136.212 513.603 136.08 513.278 136.006 512.909C135.935 512.536 135.937 512.138 136.01 511.713C136.081 511.288 136.214 510.891 136.407 510.522C136.601 510.15 136.841 509.823 137.128 509.543C137.414 509.263 137.728 509.045 138.069 508.888C138.414 508.728 138.768 508.648 139.131 508.648C139.457 508.648 139.754 508.714 140.022 508.846C140.293 508.975 140.524 509.159 140.715 509.396C140.909 509.629 141.052 509.903 141.144 510.217H141.181L141.439 508.703H141.735L140.978 513.227C140.904 513.68 140.899 513.981 140.964 514.132C141.029 514.28 141.199 514.354 141.476 514.354C141.852 514.354 142.207 514.24 142.543 514.012C142.878 513.781 143.166 513.467 143.406 513.07C143.646 512.67 143.809 512.218 143.895 511.713C143.994 511.104 144.003 510.524 143.923 509.973C143.846 509.422 143.691 508.919 143.457 508.463C143.223 508.004 142.921 507.607 142.552 507.272C142.186 506.933 141.764 506.672 141.287 506.487C140.81 506.303 140.288 506.21 139.722 506.21C139.011 506.21 138.317 506.353 137.64 506.64C136.966 506.923 136.347 507.317 135.784 507.821C135.224 508.323 134.753 508.906 134.372 509.571C133.99 510.236 133.736 510.95 133.61 511.713C133.481 512.473 133.491 513.187 133.642 513.855C133.793 514.52 134.061 515.103 134.445 515.605C134.83 516.109 135.307 516.503 135.877 516.787C136.449 517.073 137.091 517.216 137.802 517.216C138.14 517.216 138.48 517.181 138.822 517.11C139.164 517.042 139.501 516.94 139.833 516.805C140.165 516.673 140.485 516.508 140.793 516.311L140.941 516.551C140.615 516.76 140.278 516.936 139.93 517.077C139.582 517.222 139.23 517.33 138.873 517.401C138.516 517.474 138.159 517.511 137.802 517.511ZM138.116 514.483C138.54 514.483 138.953 514.358 139.353 514.109C139.753 513.86 140.096 513.526 140.382 513.107C140.669 512.689 140.855 512.224 140.941 511.713C141.021 511.202 140.995 510.737 140.862 510.319C140.733 509.9 140.518 509.566 140.216 509.317C139.918 509.068 139.556 508.943 139.131 508.943C138.706 508.943 138.293 509.068 137.889 509.317C137.489 509.566 137.145 509.9 136.855 510.319C136.569 510.737 136.386 511.202 136.306 511.713C136.22 512.224 136.243 512.689 136.375 513.107C136.508 513.526 136.724 513.86 137.026 514.109C137.328 514.358 137.691 514.483 138.116 514.483ZM148.056 515.148C147.496 515.148 147.019 514.986 146.625 514.663C146.234 514.34 145.954 513.898 145.785 513.338C145.619 512.778 145.594 512.144 145.711 511.436C145.828 510.747 146.059 510.128 146.403 509.58C146.751 509.029 147.17 508.595 147.659 508.278C148.151 507.958 148.672 507.798 149.219 507.798C149.786 507.798 150.264 507.961 150.655 508.288C151.049 508.614 151.329 509.057 151.495 509.617C151.665 510.177 151.694 510.808 151.583 511.51C151.466 512.199 151.234 512.819 150.886 513.37C150.538 513.918 150.118 514.352 149.626 514.672C149.133 514.989 148.61 515.148 148.056 515.148ZM148.056 514.852C148.567 514.852 149.049 514.705 149.501 514.409C149.953 514.111 150.338 513.704 150.655 513.19C150.972 512.673 151.183 512.089 151.288 511.436C151.392 510.802 151.372 510.233 151.228 509.728C151.083 509.223 150.838 508.825 150.494 508.532C150.149 508.24 149.73 508.094 149.238 508.094C148.733 508.094 148.255 508.245 147.802 508.546C147.35 508.845 146.963 509.252 146.643 509.77C146.323 510.283 146.111 510.864 146.006 511.51C145.896 512.144 145.912 512.713 146.057 513.218C146.205 513.723 146.451 514.121 146.796 514.414C147.143 514.706 147.564 514.852 148.056 514.852ZM158.04 512.673L158.834 507.909H159.13L157.948 515H157.653L157.837 513.874H157.8C157.579 514.243 157.257 514.538 156.835 514.76C156.417 514.982 155.963 515.092 155.474 515.092C155 515.092 154.598 514.989 154.269 514.783C153.939 514.577 153.702 514.292 153.558 513.929C153.413 513.566 153.381 513.147 153.461 512.673L154.255 507.909H154.55L153.756 512.673C153.655 513.301 153.767 513.812 154.093 514.206C154.423 514.6 154.901 514.797 155.529 514.797C155.948 514.797 156.334 514.706 156.688 514.525C157.045 514.343 157.342 514.092 157.579 513.772C157.819 513.452 157.973 513.086 158.04 512.673ZM163.859 507.909L163.804 508.205H160.997L161.053 507.909H163.859ZM162.364 506.21H162.659L161.459 513.504C161.41 513.781 161.43 514.02 161.519 514.22C161.608 514.417 161.745 514.569 161.93 514.677C162.114 514.781 162.327 514.834 162.567 514.834C162.65 514.834 162.73 514.826 162.807 514.811C162.887 514.792 162.973 514.769 163.065 514.741L163.102 515.018C163.001 515.055 162.904 515.083 162.811 515.102C162.722 515.12 162.622 515.129 162.511 515.129C162.222 515.129 161.965 515.063 161.74 514.931C161.519 514.798 161.353 514.611 161.242 514.368C161.134 514.124 161.108 513.837 161.163 513.504L162.364 506.21ZM166.999 505.545L165.429 515H165.134L166.703 505.545H166.999ZM170.451 515.148C169.89 515.148 169.413 514.986 169.019 514.663C168.629 514.34 168.349 513.898 168.179 513.338C168.013 512.778 167.988 512.144 168.105 511.436C168.222 510.747 168.453 510.128 168.798 509.58C169.146 509.029 169.564 508.595 170.054 508.278C170.546 507.958 171.066 507.798 171.614 507.798C172.18 507.798 172.659 507.961 173.05 508.288C173.444 508.614 173.724 509.057 173.89 509.617C174.059 510.177 174.088 510.808 173.978 511.51C173.861 512.199 173.628 512.819 173.28 513.37C172.933 513.918 172.513 514.352 172.02 514.672C171.528 514.989 171.005 515.148 170.451 515.148ZM170.451 514.852C170.961 514.852 171.443 514.705 171.896 514.409C172.348 514.111 172.733 513.704 173.05 513.19C173.367 512.673 173.577 512.089 173.682 511.436C173.787 510.802 173.767 510.233 173.622 509.728C173.477 509.223 173.233 508.825 172.888 508.532C172.543 508.24 172.125 508.094 171.632 508.094C171.128 508.094 170.649 508.245 170.197 508.546C169.744 508.845 169.358 509.252 169.038 509.77C168.718 510.283 168.505 510.864 168.401 511.51C168.29 512.144 168.307 512.713 168.452 513.218C168.599 513.723 168.846 514.121 169.19 514.414C169.538 514.706 169.958 514.852 170.451 514.852ZM177.979 515.148C177.419 515.148 176.942 514.986 176.548 514.663C176.157 514.34 175.877 513.898 175.708 513.338C175.541 512.778 175.517 512.144 175.634 511.436C175.751 510.747 175.981 510.128 176.326 509.58C176.674 509.029 177.093 508.595 177.582 508.278C178.074 507.958 178.594 507.798 179.142 507.798C179.709 507.798 180.187 507.961 180.578 508.288C180.972 508.614 181.252 509.057 181.418 509.617C181.587 510.177 181.617 510.808 181.506 511.51C181.389 512.199 181.157 512.819 180.809 513.37C180.461 513.918 180.041 514.352 179.548 514.672C179.056 514.989 178.533 515.148 177.979 515.148ZM177.979 514.852C178.49 514.852 178.971 514.705 179.424 514.409C179.876 514.111 180.261 513.704 180.578 513.19C180.895 512.673 181.106 512.089 181.21 511.436C181.315 510.802 181.295 510.233 181.15 509.728C181.006 509.223 180.761 508.825 180.416 508.532C180.072 508.24 179.653 508.094 179.161 508.094C178.656 508.094 178.177 508.245 177.725 508.546C177.273 508.845 176.886 509.252 176.566 509.77C176.246 510.283 176.034 510.864 175.929 511.51C175.818 512.144 175.835 512.713 175.98 513.218C176.128 513.723 176.374 514.121 176.719 514.414C177.066 514.706 177.486 514.852 177.979 514.852ZM183.698 512.138L183.79 511.584H183.901L188.24 507.909H188.702L184.935 511.085L184.898 511.122L183.698 512.138ZM182.996 515L184.565 505.545H184.861L183.291 515H182.996ZM187.28 515L184.787 511.085L185.027 510.901L187.631 515H187.28ZM189.737 515.055C189.645 515.055 189.569 515.023 189.511 514.958C189.455 514.894 189.432 514.815 189.442 514.723C189.451 514.631 189.491 514.552 189.562 514.488C189.635 514.423 189.719 514.391 189.811 514.391C189.903 514.391 189.977 514.423 190.032 514.488C190.091 514.552 190.116 514.631 190.106 514.723C190.1 514.785 190.079 514.842 190.042 514.894C190.008 514.943 189.963 514.982 189.908 515.009C189.856 515.04 189.799 515.055 189.737 515.055ZM195.149 515.148C194.564 515.148 194.075 514.986 193.681 514.663C193.29 514.34 193.014 513.901 192.854 513.347C192.694 512.79 192.671 512.165 192.785 511.473C192.899 510.774 193.13 510.148 193.478 509.594C193.825 509.04 194.25 508.603 194.752 508.283C195.256 507.96 195.795 507.798 196.367 507.798C196.798 507.798 197.175 507.891 197.498 508.075C197.822 508.257 198.074 508.512 198.256 508.842C198.437 509.168 198.528 509.546 198.528 509.977H198.214C198.214 509.399 198.045 508.94 197.706 508.602C197.371 508.263 196.925 508.094 196.367 508.094C195.847 508.094 195.356 508.241 194.895 508.537C194.436 508.829 194.045 509.229 193.722 509.737C193.402 510.245 193.188 510.824 193.081 511.473C192.976 512.101 192.99 512.67 193.122 513.181C193.257 513.692 193.498 514.098 193.842 514.4C194.187 514.701 194.622 514.852 195.149 514.852C195.533 514.852 195.901 514.772 196.252 514.612C196.603 514.452 196.911 514.228 197.175 513.938C197.44 513.649 197.632 513.313 197.752 512.932H198.066C197.922 513.384 197.702 513.777 197.406 514.109C197.111 514.438 196.768 514.694 196.377 514.875C195.989 515.057 195.58 515.148 195.149 515.148ZM202.316 515.148C201.756 515.148 201.279 514.986 200.885 514.663C200.494 514.34 200.214 513.898 200.044 513.338C199.878 512.778 199.854 512.144 199.971 511.436C200.088 510.747 200.318 510.128 200.663 509.58C201.011 509.029 201.429 508.595 201.919 508.278C202.411 507.958 202.931 507.798 203.479 507.798C204.045 507.798 204.524 507.961 204.915 508.288C205.309 508.614 205.589 509.057 205.755 509.617C205.924 510.177 205.954 510.808 205.843 511.51C205.726 512.199 205.493 512.819 205.146 513.37C204.798 513.918 204.378 514.352 203.885 514.672C203.393 514.989 202.87 515.148 202.316 515.148ZM202.316 514.852C202.827 514.852 203.308 514.705 203.761 514.409C204.213 514.111 204.598 513.704 204.915 513.19C205.232 512.673 205.443 512.089 205.547 511.436C205.652 510.802 205.632 510.233 205.487 509.728C205.343 509.223 205.098 508.825 204.753 508.532C204.409 508.24 203.99 508.094 203.498 508.094C202.993 508.094 202.514 508.245 202.062 508.546C201.609 508.845 201.223 509.252 200.903 509.77C200.583 510.283 200.371 510.864 200.266 511.51C200.155 512.144 200.172 512.713 200.317 513.218C200.465 513.723 200.711 514.121 201.055 514.414C201.403 514.706 201.823 514.852 202.316 514.852ZM207.333 515L208.515 507.909H208.81L208.625 508.962H208.662C208.856 508.62 209.138 508.345 209.507 508.135C209.876 507.923 210.297 507.817 210.767 507.817C211.303 507.817 211.706 507.949 211.977 508.214C212.248 508.478 212.411 508.832 212.466 509.276H212.503C212.688 508.832 212.982 508.478 213.385 508.214C213.788 507.949 214.257 507.817 214.793 507.817C215.504 507.817 215.992 508.043 216.256 508.495C216.521 508.945 216.593 509.525 216.473 510.236L215.679 515H215.384L216.178 510.236C216.279 509.608 216.227 509.097 216.021 508.703C215.818 508.309 215.402 508.112 214.775 508.112C214.147 508.112 213.627 508.312 213.214 508.712C212.805 509.109 212.549 509.617 212.448 510.236L211.654 515H211.358L212.152 510.236C212.254 509.608 212.202 509.097 211.995 508.703C211.792 508.309 211.377 508.112 210.749 508.112C210.33 508.112 209.958 508.203 209.632 508.385C209.309 508.566 209.042 508.817 208.833 509.137C208.627 509.457 208.49 509.823 208.422 510.236L207.628 515H207.333Z" fill="black"/>
</g>
<defs>
<clipPath id="clip0_19_104">
<rect width="300" height="520" fill="white"/>
</clipPath>
<clipPath id="clip1_19_104">
<rect width="300" height="75" fill="white"/>
</clipPath>
<clipPath id="clip2_19_104">
<rect width="224" height="75" fill="white" transform="translate(60)"/>
</clipPath>
<clipPath id="clip3_19_104">
<rect width="40" height="40" fill="white" transform="translate(10 18)"/>
</clipPath>
<clipPath id="clip4_19_104">
<rect width="30.8" height="40" fill="white" transform="translate(15 16)"/>
</clipPath>
</defs>
</svg>
