<svg width="308" height="378" viewBox="0 0 308 378" fill="none" xmlns="http://www.w3.org/2000/svg">
<path d="M178.825 287.5L153.425 0H0V262.5L178.825 287.5Z" fill="white"/>
<path d="M306.701 262.598V87.5977L244.201 62.5976L219.201 0.0977783H152.627L153.026 287.598L306.701 262.598Z" fill="white"/>
<path d="M219.999 87.4999V0L307.499 87.4999H219.999Z" fill="white"/>
<path d="M307.5 262.5H0V400H307.5V262.5Z" fill="#1E1E1E"/>
<path d="M76.0177 319.348H66.0631C65.8813 318.06 65.5101 316.916 64.9495 315.916C64.3889 314.901 63.6692 314.037 62.7904 313.325C61.9116 312.613 60.8965 312.067 59.745 311.689C58.6086 311.31 57.3738 311.12 56.0404 311.12C53.6313 311.12 51.5328 311.719 49.745 312.916C47.9571 314.098 46.5707 315.825 45.5859 318.098C44.601 320.355 44.1086 323.098 44.1086 326.325C44.1086 329.643 44.601 332.431 45.5859 334.689C46.5859 336.946 47.9798 338.651 49.7677 339.802C51.5556 340.954 53.6238 341.529 55.9722 341.529C57.2904 341.529 58.5101 341.355 59.6313 341.007C60.7677 340.658 61.7753 340.151 62.6541 339.484C63.5328 338.802 64.2601 337.976 64.8359 337.007C65.4268 336.037 65.8359 334.931 66.0631 333.689L76.0177 333.734C75.7601 335.87 75.1162 337.931 74.0859 339.916C73.0707 341.886 71.6995 343.651 69.9722 345.211C68.2601 346.757 66.2147 347.984 63.8359 348.893C61.4722 349.787 58.798 350.234 55.8131 350.234C51.6616 350.234 47.9495 349.295 44.6768 347.416C41.4192 345.537 38.8434 342.817 36.9495 339.257C35.0707 335.696 34.1313 331.386 34.1313 326.325C34.1313 321.249 35.0859 316.931 36.995 313.37C38.9041 309.81 41.495 307.098 44.7677 305.234C48.0404 303.355 51.7222 302.416 55.8131 302.416C58.5101 302.416 61.0101 302.795 63.3131 303.552C65.6313 304.31 67.6844 305.416 69.4722 306.87C71.2601 308.31 72.7147 310.075 73.8359 312.166C74.9722 314.257 75.6995 316.651 76.0177 319.348ZM82.8927 349.598V314.689H92.2791V320.779H92.6427C93.2791 318.613 94.3472 316.976 95.8472 315.87C97.3472 314.749 99.0745 314.189 101.029 314.189C101.514 314.189 102.037 314.219 102.597 314.279C103.158 314.34 103.65 314.423 104.075 314.529V323.12C103.62 322.984 102.991 322.863 102.188 322.757C101.385 322.651 100.65 322.598 99.9836 322.598C98.5594 322.598 97.2866 322.908 96.1654 323.529C95.0594 324.136 94.1806 324.984 93.5291 326.075C92.8927 327.166 92.5745 328.423 92.5745 329.848V349.598H82.8927ZM118.035 350.257C115.807 350.257 113.823 349.87 112.08 349.098C110.338 348.31 108.959 347.151 107.944 345.62C106.944 344.075 106.444 342.151 106.444 339.848C106.444 337.908 106.8 336.279 107.512 334.961C108.224 333.643 109.194 332.583 110.421 331.779C111.648 330.976 113.042 330.37 114.603 329.961C116.179 329.552 117.83 329.264 119.557 329.098C121.588 328.886 123.224 328.689 124.467 328.507C125.709 328.31 126.61 328.022 127.171 327.643C127.732 327.264 128.012 326.704 128.012 325.961V325.825C128.012 324.386 127.557 323.272 126.648 322.484C125.754 321.696 124.482 321.302 122.83 321.302C121.088 321.302 119.701 321.689 118.671 322.461C117.641 323.219 116.959 324.173 116.626 325.325L107.671 324.598C108.126 322.476 109.02 320.643 110.353 319.098C111.686 317.537 113.406 316.34 115.512 315.507C117.633 314.658 120.088 314.234 122.876 314.234C124.815 314.234 126.671 314.461 128.444 314.916C130.232 315.37 131.815 316.075 133.194 317.029C134.588 317.984 135.686 319.211 136.489 320.711C137.292 322.196 137.694 323.976 137.694 326.052V349.598H128.512V344.757H128.239C127.679 345.848 126.929 346.81 125.989 347.643C125.05 348.461 123.921 349.105 122.603 349.575C121.285 350.029 119.762 350.257 118.035 350.257ZM120.807 343.575C122.232 343.575 123.489 343.295 124.58 342.734C125.671 342.158 126.527 341.386 127.148 340.416C127.77 339.446 128.08 338.348 128.08 337.12V333.416C127.777 333.613 127.36 333.795 126.83 333.961C126.315 334.113 125.732 334.257 125.08 334.393C124.429 334.514 123.777 334.628 123.126 334.734C122.474 334.825 121.883 334.908 121.353 334.984C120.217 335.151 119.224 335.416 118.376 335.779C117.527 336.143 116.868 336.636 116.398 337.257C115.929 337.863 115.694 338.62 115.694 339.529C115.694 340.848 116.171 341.855 117.126 342.552C118.095 343.234 119.323 343.575 120.807 343.575ZM152.092 349.598L142.592 314.689H152.387L157.796 338.143H158.114L163.751 314.689H173.364L179.092 338.007H179.387L184.705 314.689H194.478L185.001 349.598H174.751L168.751 327.643H168.319L162.319 349.598H152.092ZM209.325 303.052V349.598H199.643V303.052H209.325ZM232.989 350.279C229.398 350.279 226.307 349.552 223.717 348.098C221.141 346.628 219.156 344.552 217.762 341.87C216.368 339.173 215.671 335.984 215.671 332.302C215.671 328.711 216.368 325.56 217.762 322.848C219.156 320.136 221.118 318.022 223.648 316.507C226.194 314.992 229.179 314.234 232.603 314.234C234.906 314.234 237.05 314.605 239.035 315.348C241.035 316.075 242.777 317.173 244.262 318.643C245.762 320.113 246.929 321.961 247.762 324.189C248.595 326.401 249.012 328.992 249.012 331.961V334.62H219.535V328.62H239.898C239.898 327.226 239.595 325.992 238.989 324.916C238.383 323.84 237.542 322.999 236.467 322.393C235.406 321.772 234.171 321.461 232.762 321.461C231.292 321.461 229.989 321.802 228.853 322.484C227.732 323.151 226.853 324.052 226.217 325.189C225.58 326.31 225.254 327.56 225.239 328.939V334.643C225.239 336.37 225.557 337.863 226.194 339.12C226.845 340.378 227.762 341.348 228.944 342.029C230.126 342.711 231.527 343.052 233.148 343.052C234.224 343.052 235.209 342.901 236.103 342.598C236.997 342.295 237.762 341.84 238.398 341.234C239.035 340.628 239.52 339.886 239.853 339.007L248.807 339.598C248.353 341.749 247.421 343.628 246.012 345.234C244.618 346.825 242.815 348.067 240.603 348.961C238.406 349.84 235.868 350.279 232.989 350.279ZM255.33 349.598V314.689H264.717V320.779H265.08C265.717 318.613 266.785 316.976 268.285 315.87C269.785 314.749 271.512 314.189 273.467 314.189C273.951 314.189 274.474 314.219 275.035 314.279C275.595 314.34 276.088 314.423 276.512 314.529V323.12C276.057 322.984 275.429 322.863 274.626 322.757C273.823 322.651 273.088 322.598 272.421 322.598C270.997 322.598 269.724 322.908 268.603 323.529C267.497 324.136 266.618 324.984 265.967 326.075C265.33 327.166 265.012 328.423 265.012 329.848V349.598H255.33Z" fill="white"/>
<path d="M54.419 110.051L36.5227 47.5054H50.968L61.321 90.9635H61.8401L73.262 47.5054H85.6306L97.022 91.0552H97.5717L107.925 47.5054H122.37L104.474 110.051H91.5859L79.6754 69.1581H79.1867L67.3068 110.051H54.419ZM145.542 110.967C140.717 110.967 136.563 109.99 133.082 108.035C129.621 106.06 126.953 103.271 125.08 99.6674C123.207 96.0433 122.271 91.7576 122.271 86.8101C122.271 81.9849 123.207 77.75 125.08 74.1056C126.953 70.4612 129.59 67.621 132.99 65.585C136.411 63.549 140.422 62.531 145.023 62.531C148.118 62.531 150.998 63.0298 153.666 64.0275C156.353 65.0047 158.694 66.4808 160.69 68.4557C162.705 70.4306 164.273 72.9145 165.393 75.9074C166.513 78.88 167.073 82.3615 167.073 86.352V89.9252H127.462V81.8627H154.826C154.826 79.9896 154.419 78.3303 153.605 76.8847C152.79 75.4392 151.66 74.3092 150.215 73.4948C148.789 72.66 147.13 72.2427 145.237 72.2427C143.262 72.2427 141.511 72.7008 139.984 73.617C138.477 74.5128 137.296 75.7242 136.441 77.2512C135.586 78.7578 135.148 80.4375 135.128 82.2902V89.9557C135.128 92.2768 135.556 94.2822 136.411 95.9721C137.286 97.6619 138.518 98.965 140.106 99.8812C141.694 100.797 143.577 101.255 145.756 101.255C147.201 101.255 148.525 101.052 149.726 100.645C150.927 100.237 151.955 99.6267 152.81 98.8123C153.666 97.9979 154.317 97.0002 154.765 95.8194L166.798 96.6134C166.187 99.5045 164.935 102.029 163.041 104.187C161.168 106.325 158.745 107.995 155.773 109.196C152.821 110.377 149.41 110.967 145.542 110.967ZM175.807 110.051V47.5054H188.817V71.0211H189.214C189.784 69.7588 190.609 68.4761 191.688 67.1731C192.787 65.8497 194.212 64.7502 195.963 63.8748C197.734 62.9789 199.933 62.531 202.56 62.531C205.98 62.531 209.136 63.4269 212.027 65.2185C214.918 66.9898 217.229 69.6671 218.96 73.2505C220.69 76.8134 221.556 81.2824 221.556 86.6574C221.556 91.8899 220.711 96.308 219.021 99.9117C217.351 103.495 215.071 106.213 212.18 108.066C209.309 109.898 206.092 110.814 202.529 110.814C200.005 110.814 197.857 110.397 196.085 109.562C194.334 108.728 192.899 107.679 191.779 106.417C190.659 105.134 189.804 103.841 189.214 102.538H188.634V110.051H175.807ZM188.542 86.5964C188.542 89.3857 188.929 91.8187 189.703 93.8954C190.476 95.9721 191.596 97.5907 193.062 98.7512C194.528 99.8913 196.309 100.461 198.406 100.461C200.524 100.461 202.315 99.8812 203.781 98.7206C205.247 97.5398 206.357 95.911 207.11 93.8343C207.884 91.7372 208.271 89.3246 208.271 86.5964C208.271 83.8885 207.894 81.5064 207.141 79.4501C206.387 77.3937 205.278 75.7853 203.812 74.6248C202.346 73.4643 200.544 72.884 198.406 72.884C196.289 72.884 194.497 73.4439 193.031 74.5637C191.586 75.6835 190.476 77.2715 189.703 79.3279C188.929 81.3842 188.542 83.8071 188.542 86.5964ZM92.6548 151.505V214.051H81.2329L54.022 174.685H53.5639V214.051H40.3401V151.505H51.9452L78.9424 190.841H79.4921V151.505H92.6548ZM124.531 214.967C119.787 214.967 115.684 213.959 112.223 211.944C108.782 209.908 106.125 207.078 104.252 203.454C102.379 199.809 101.443 195.585 101.443 190.78C101.443 185.934 102.379 181.699 104.252 178.075C106.125 174.431 108.782 171.601 112.223 169.585C115.684 167.549 119.787 166.531 124.531 166.531C129.274 166.531 133.367 167.549 136.808 169.585C140.269 171.601 142.936 174.431 144.809 178.075C146.682 181.699 147.619 185.934 147.619 190.78C147.619 195.585 146.682 199.809 144.809 203.454C142.936 207.078 140.269 209.908 136.808 211.944C133.367 213.959 129.274 214.967 124.531 214.967ZM124.592 204.889C126.75 204.889 128.552 204.278 129.997 203.057C131.443 201.815 132.532 200.125 133.265 197.987C134.018 195.849 134.395 193.416 134.395 190.688C134.395 187.96 134.018 185.527 133.265 183.389C132.532 181.251 131.443 179.561 129.997 178.319C128.552 177.077 126.75 176.456 124.592 176.456C122.413 176.456 120.581 177.077 119.095 178.319C117.629 179.561 116.519 181.251 115.766 183.389C115.033 185.527 114.666 187.96 114.666 190.688C114.666 193.416 115.033 195.849 115.766 197.987C116.519 200.125 117.629 201.815 119.095 203.057C120.581 204.278 122.413 204.889 124.592 204.889ZM198.299 167.142L181.9 214.051H167.241L150.841 167.142H164.584L174.326 200.705H174.814L184.526 167.142H198.299ZM224.823 214.967C219.998 214.967 215.845 213.99 212.363 212.035C208.902 210.06 206.235 207.271 204.362 203.667C202.489 200.043 201.552 195.758 201.552 190.81C201.552 185.985 202.489 181.75 204.362 178.106C206.235 174.461 208.871 171.621 212.271 169.585C215.692 167.549 219.703 166.531 224.304 166.531C227.399 166.531 230.28 167.03 232.947 168.027C235.634 169.005 237.976 170.481 239.971 172.456C241.987 174.431 243.554 176.915 244.674 179.907C245.794 182.88 246.354 186.362 246.354 190.352V193.925H206.744V185.863H234.107C234.107 183.99 233.7 182.33 232.886 180.885C232.071 179.439 230.941 178.309 229.496 177.495C228.071 176.66 226.411 176.243 224.518 176.243C222.543 176.243 220.792 176.701 219.265 177.617C217.758 178.513 216.578 179.724 215.722 181.251C214.867 182.758 214.43 184.438 214.409 186.29V193.956C214.409 196.277 214.837 198.282 215.692 199.972C216.567 201.662 217.799 202.965 219.387 203.881C220.975 204.797 222.859 205.255 225.037 205.255C226.483 205.255 227.806 205.052 229.007 204.645C230.208 204.237 231.237 203.627 232.092 202.812C232.947 201.998 233.598 201 234.046 199.819L246.079 200.613C245.468 203.505 244.216 206.029 242.323 208.187C240.449 210.325 238.027 211.995 235.054 213.196C232.102 214.377 228.692 214.967 224.823 214.967ZM267.854 151.505V214.051H254.844V151.505H267.854Z" fill="#1E1E1E"/>
</svg>
